<svg width="17" height="16" viewBox="0 0 17 16" fill="none" xmlns="http://www.w3.org/2000/svg">
<path d="M8.05773 15.925C5.90773 15.925 3.76607 15.5833 1.7244 14.9C0.966068 14.65 0.391068 14.1083 0.141068 13.425C-0.108932 12.7417 -0.0255991 11.9583 0.382734 11.275L1.44107 9.50833C1.6744 9.11667 1.88273 8.38333 1.88273 7.925V6.175C1.88273 2.76667 4.6494 0 8.05773 0C11.4661 0 14.2327 2.76667 14.2327 6.175V7.925C14.2327 8.375 14.4411 9.11667 14.6744 9.50833L15.7327 11.275C16.1244 11.925 16.1911 12.7 15.9327 13.4083C15.6744 14.1167 15.1077 14.6583 14.3911 14.9C12.3494 15.5917 10.2077 15.925 8.05773 15.925ZM8.05773 1.25833C5.34107 1.25833 3.13273 3.46667 3.13273 6.18333V7.93333C3.13273 8.60833 2.86607 9.58333 2.51607 10.1583L1.45773 11.9333C1.24107 12.2917 1.19107 12.675 1.31607 13.0083C1.44107 13.3417 1.7244 13.5917 2.1244 13.725C5.95773 15 10.1744 15 14.0077 13.725C14.3661 13.6083 14.6411 13.3417 14.7661 12.9917C14.8994 12.6417 14.8577 12.2583 14.6661 11.9333L13.6077 10.1667C13.2577 9.59167 12.9911 8.61667 12.9911 7.94167V6.19167C12.9827 3.46667 10.7744 1.25833 8.05773 1.25833Z" fill="#1C2127"/>
</svg>
