<svg width="12" height="20" viewBox="0 0 12 20" fill="none" xmlns="http://www.w3.org/2000/svg">
<path d="M12 9.45384C12 8.80104 11.662 8.19246 11.0814 7.6801C11.3038 6.9857 11.428 6.21327 11.428 5.39922C11.428 2.55657 9.92008 0.226267 7.99904 0.015604C7.90371 0.00520093 7.81128 0 7.71595 0H4.85604C3.37699 0 2.09726 1.26138 1.50217 3.08453H2.69811C3.1921 1.81015 4.05585 1.02731 4.85604 1.02731H5.5349C5.50024 1.06892 5.45692 1.11313 5.42225 1.15475C4.97449 1.6697 4.61049 2.3303 4.36206 3.08453H1.5195C1.39817 3.39922 1.32884 3.74513 1.25951 4.11444H4.10784C4.0414 4.52796 4.00385 4.95709 4.00385 5.39922C4.00385 5.70611 4.02118 6.0026 4.05295 6.29389C4.0674 6.42653 4.08762 6.55657 4.11073 6.68661H2.40636C2.33125 6.28609 2.28791 5.85436 2.28791 5.39922C2.28791 4.94669 2.33125 4.51496 2.40636 4.11444H1.25085C1.18152 4.52536 1.14396 4.95709 1.14396 5.39922C1.14396 6.07543 1.23062 6.72302 1.38661 7.316C0.612419 7.83615 0.115551 8.48635 0.017332 9.19896C0.00577686 9.28479 0 9.37061 0 9.45384V12.0286C0 12.3875 0.101107 12.7308 0.288878 13.0559C0.147328 13.303 0.0548862 13.5631 0.017332 13.831C0.00577686 13.9142 0 14 0 14.0832V16.658C0 16.9155 0.0519889 17.1678 0.153096 17.4096C0.632634 18.5774 2.20992 19.5085 4.24652 19.8544C4.80116 19.948 5.39048 20 6.00001 20C9.31055 20 12 18.5046 12 16.658V14.0832C12 13.7243 11.8989 13.3784 11.7111 13.0559C11.8989 12.7308 12 12.3875 12 12.0286V9.45384ZM6.2831 1.82835C6.42465 1.6593 6.57487 1.51626 6.73086 1.39922C6.86663 1.29519 7.0053 1.21457 7.14974 1.15475C7.33751 1.06892 7.52818 1.02731 7.71595 1.02731C8.92924 1.02731 10.2841 2.82185 10.2841 5.39922C10.2841 5.9844 10.2147 6.52536 10.0934 7.01431C10.0039 7.38102 9.88541 7.71912 9.74386 8.02341C9.41743 8.72562 8.97545 9.25097 8.50458 9.53186C8.24459 9.69051 7.97594 9.77374 7.71595 9.77374C7.52818 9.77374 7.33751 9.72952 7.14974 9.64629C6.84353 9.51625 6.54887 9.28999 6.2831 8.9701C5.90178 8.52276 5.57535 7.90637 5.37602 7.15995C5.28647 6.84265 5.22004 6.50455 5.18537 6.14304C5.15937 5.90377 5.14492 5.6567 5.14492 5.39922C5.14492 3.85436 5.63024 2.59298 6.2831 1.82835ZM4.36206 7.71392C4.61049 8.47074 4.97449 9.13134 5.42225 9.64629C5.45114 9.68531 5.49446 9.72952 5.5349 9.77374H4.85604C4.06741 9.77374 3.22099 9.01691 2.72412 7.77894C2.71545 7.75813 2.70678 7.73732 2.69811 7.71392H4.36206ZM1.14396 11.4174C1.19019 11.4486 1.23929 11.485 1.28551 11.5189C1.40684 11.6047 1.53972 11.6879 1.67549 11.7685C2.04526 11.9818 2.46413 12.1691 2.92056 12.3225C3.08522 12.3797 3.25566 12.4291 3.42898 12.4733V13.9714C2.68946 13.7399 2.09726 13.4148 1.70439 13.0585C1.37218 12.7568 1.17862 12.4317 1.14973 12.117C1.14684 12.0858 1.14396 12.0572 1.14396 12.0286V11.4174ZM3.42898 18.6008C2.29658 18.2445 1.51372 17.6775 1.24796 17.0949C1.17863 16.9493 1.14396 16.8036 1.14396 16.658V16.0468C1.19019 16.078 1.23929 16.1144 1.28551 16.1482C1.57439 16.3537 1.9037 16.5384 2.26769 16.697C2.6259 16.8583 3.013 16.9935 3.42898 17.1027V18.6008ZM10.8561 16.658C10.8561 17.3784 9.98652 18.1561 8.57391 18.6008V17.1027C9.41165 16.8817 10.1454 16.554 10.7145 16.1482C10.7636 16.1196 10.8098 16.0858 10.8561 16.0468V16.658ZM10.7145 14.593C10.5729 14.8687 10.3187 15.1339 9.9663 15.3732C9.59654 15.6281 9.12566 15.8544 8.57102 16.0286V17.1027L7.42994 17.3316V18.8635C6.98218 18.9337 6.50555 18.9701 6.00001 18.9701C5.49447 18.9701 5.01782 18.9337 4.57295 18.8635V17.3316C5.02938 17.3914 5.50603 17.4252 6.00001 17.4252C6.49399 17.4252 6.97063 17.3914 7.42994 17.3316V16.2887C6.98218 16.3589 6.50555 16.3979 6.00001 16.3979C5.06982 16.3979 4.22918 16.2679 3.51854 16.0546C2.92345 15.8778 2.42079 15.6411 2.0337 15.3732C1.68127 15.1339 1.42706 14.8687 1.28551 14.593C1.19018 14.4239 1.14396 14.2549 1.14396 14.0832C1.14396 14.0546 1.14684 14.026 1.14973 13.9974C1.99037 14.6346 3.22678 15.1053 4.6625 15.2848C5.09293 15.342 5.54069 15.3706 6.00001 15.3706C7.99327 15.3706 9.7612 14.827 10.8532 13.9948C10.8561 14.026 10.8561 14.0546 10.8561 14.0832C10.8561 14.2549 10.8098 14.4239 10.7145 14.593ZM4.57295 14.2341V12.7022C5.02938 12.7646 5.50603 12.7984 6.00001 12.7984C6.36977 12.7984 6.72798 12.7802 7.08041 12.7438C7.19596 12.7308 7.31439 12.7178 7.42994 12.7022V14.2341C6.98218 14.3043 6.50555 14.3407 6.00001 14.3407C5.91623 14.3407 5.83534 14.3407 5.75445 14.3355C5.33847 14.3277 4.9456 14.2939 4.57295 14.2341ZM10.8561 12.0286C10.8561 12.0572 10.8561 12.0858 10.8532 12.117C10.8214 12.4317 10.6278 12.7568 10.2985 13.0585C9.90276 13.4148 9.31344 13.7399 8.57391 13.9714V12.4733C8.74723 12.4291 8.91478 12.3797 9.07944 12.3225C9.53876 12.1691 9.95763 11.9818 10.3245 11.7685C10.4603 11.6879 10.5932 11.6047 10.7145 11.5189C10.7636 11.4903 10.8098 11.4564 10.8561 11.4174V12.0286ZM10.7145 9.96619C10.5729 10.2419 10.3187 10.5046 9.9663 10.7438C9.71787 10.9155 9.42032 11.0767 9.07944 11.2146C8.68946 11.3758 8.23881 11.5111 7.74483 11.6047C7.21329 11.7087 6.62687 11.7685 6.00001 11.7685C4.78961 11.7685 3.7323 11.5501 2.91766 11.2146C2.57968 11.0767 2.28213 10.9155 2.0337 10.7438C1.68127 10.5046 1.42706 10.2419 1.28551 9.96619C1.19018 9.79454 1.14396 9.62549 1.14396 9.45384C1.14396 9.09493 1.3635 8.71782 1.75926 8.37712C2.42368 9.83616 3.56476 10.801 4.85604 10.801H7.71595C7.85172 10.801 7.98459 10.7906 8.11747 10.7698C9.12277 10.6112 10.0096 9.86737 10.6134 8.77504C10.7723 9.00131 10.8561 9.23017 10.8561 9.45384C10.8561 9.62549 10.8098 9.79454 10.7145 9.96619Z" fill="white"/>
<path d="M9.66299 6.34328L7.87484 7.95056L6.078 6.33287L6.81464 5.66967L7.34907 6.15081V2.98047H8.39192V6.15862L8.92347 5.68007L9.66299 6.34328Z" fill="white"/>
</svg>
