<svg width="9" height="15" viewBox="0 0 9 15" fill="none" xmlns="http://www.w3.org/2000/svg">
<path d="M9 7.09038C9 6.60078 8.74651 6.14434 8.31103 5.76008C8.47785 5.23927 8.57102 4.65995 8.57102 4.04942C8.57102 1.91743 7.44006 0.1697 5.99928 0.011703C5.92778 0.00390069 5.85846 0 5.78696 0H3.64203C2.53274 0 1.57295 0.946037 1.12663 2.3134H2.02359C2.39407 1.35761 3.04189 0.770484 3.64203 0.770484H4.15118C4.12518 0.801693 4.09269 0.834851 4.06669 0.86606C3.73087 1.25228 3.45787 1.74773 3.27154 2.3134H1.13963C1.04863 2.54942 0.996627 2.80884 0.944629 3.08583H3.08088C3.03105 3.39597 3.00289 3.71782 3.00289 4.04942C3.00289 4.27959 3.01588 4.50195 3.03972 4.72042C3.05055 4.8199 3.06572 4.91743 3.08305 5.01496H1.80477C1.74844 4.71457 1.71593 4.39077 1.71593 4.04942C1.71593 3.71002 1.74844 3.38622 1.80477 3.08583H0.938136C0.886138 3.39402 0.857973 3.71782 0.857973 4.04942C0.857973 4.55657 0.922964 5.04226 1.03996 5.487C0.459314 5.87711 0.086663 6.36476 0.012999 6.89922C0.00433265 6.96359 0 7.02796 0 7.09038V9.02146C0 9.29064 0.0758306 9.54812 0.216659 9.79194C0.110496 9.97725 0.0411646 10.1723 0.012999 10.3732C0.00433265 10.4356 0 10.5 0 10.5624V12.4935C0 12.6866 0.0389917 12.8758 0.114822 13.0572C0.474476 13.933 1.65744 14.6313 3.18489 14.8908C3.60087 14.961 4.04286 15 4.50001 15C6.98292 15 9 13.8784 9 12.4935V10.5624C9 10.2932 8.92417 10.0338 8.78334 9.79194C8.92417 9.54812 9 9.29064 9 9.02146V7.09038V7.09038ZM4.71233 1.37126C4.81849 1.24447 4.93115 1.13719 5.04815 1.04942C5.14998 0.971392 5.25397 0.910924 5.3623 0.86606C5.50313 0.801691 5.64613 0.770484 5.78696 0.770484C6.69693 0.770484 7.71305 2.11639 7.71305 4.04942C7.71305 4.4883 7.66105 4.89402 7.57006 5.26073C7.50289 5.53576 7.41406 5.78934 7.3079 6.01756C7.06307 6.54422 6.73159 6.93823 6.37843 7.14889C6.18344 7.26788 5.98195 7.3303 5.78696 7.3303C5.64613 7.3303 5.50313 7.29714 5.3623 7.23472C5.13265 7.13719 4.91165 6.9675 4.71233 6.72757C4.42634 6.39207 4.18151 5.92978 4.03202 5.36996C3.96485 5.13199 3.91503 4.87841 3.88903 4.60728C3.86953 4.42783 3.85869 4.24253 3.85869 4.04942C3.85869 2.89077 4.22268 1.94473 4.71233 1.37126ZM3.27154 5.78544C3.45787 6.35306 3.73087 6.8485 4.06669 7.23472C4.08835 7.26398 4.12084 7.29714 4.15118 7.3303H3.64203C3.05055 7.3303 2.41574 6.76268 2.04309 5.8342C2.03659 5.8186 2.03009 5.80299 2.02359 5.78544H3.27154ZM0.857973 8.56307C0.892639 8.58648 0.929469 8.61379 0.964134 8.63914C1.05513 8.70351 1.15479 8.76593 1.25662 8.8264C1.53394 8.98635 1.8481 9.12679 2.19042 9.24187C2.31391 9.28479 2.44174 9.32185 2.57174 9.35501V10.4785C2.01709 10.3049 1.57295 10.0611 1.27829 9.79389C1.02913 9.56763 0.883963 9.3238 0.862298 9.08778C0.860131 9.06437 0.857973 9.04291 0.857973 9.02146V8.56307ZM2.57174 13.9506C1.72244 13.6834 1.13529 13.2581 0.935967 12.8212C0.883969 12.712 0.857973 12.6027 0.857973 12.4935V12.0351C0.892639 12.0585 0.929469 12.0858 0.964134 12.1112C1.18079 12.2653 1.42778 12.4038 1.70077 12.5228C1.96942 12.6437 2.25975 12.7451 2.57174 12.8271V13.9506ZM8.14204 12.4935C8.14204 13.0338 7.48989 13.617 6.43043 13.9506V12.8271C7.05874 12.6613 7.60905 12.4155 8.03587 12.1112C8.0727 12.0897 8.10737 12.0644 8.14204 12.0351V12.4935ZM8.03587 10.9447C7.9297 11.1515 7.73905 11.3505 7.47473 11.5299C7.1974 11.7211 6.84425 11.8908 6.42826 12.0215V12.8271L5.57246 12.9987V14.1476C5.23664 14.2003 4.87916 14.2276 4.50001 14.2276C4.12085 14.2276 3.76337 14.2003 3.42971 14.1476V12.9987C3.77203 13.0436 4.12952 13.0689 4.50001 13.0689C4.87049 13.0689 5.22797 13.0436 5.57246 12.9987V12.2165C5.23664 12.2692 4.87916 12.2984 4.50001 12.2984C3.80237 12.2984 3.17188 12.2009 2.6389 12.041C2.19259 11.9083 1.8156 11.7308 1.52527 11.5299C1.26095 11.3505 1.0703 11.1515 0.964134 10.9447C0.892637 10.8179 0.857973 10.6912 0.857973 10.5624C0.857973 10.541 0.860131 10.5195 0.862298 10.4981C1.49277 10.9759 2.42008 11.329 3.49688 11.4636C3.8197 11.5065 4.15552 11.528 4.50001 11.528C5.99495 11.528 7.3209 11.1203 8.13987 10.4961C8.14204 10.5195 8.14204 10.541 8.14204 10.5624C8.14204 10.6912 8.10736 10.8179 8.03587 10.9447ZM3.42971 10.6756V9.52666C3.77203 9.57347 4.12952 9.59884 4.50001 9.59884C4.77733 9.59884 5.04598 9.58518 5.31031 9.55787C5.39697 9.54812 5.48579 9.53836 5.57246 9.52666V10.6756C5.23664 10.7282 4.87916 10.7555 4.50001 10.7555C4.43718 10.7555 4.3765 10.7555 4.31584 10.7516C4.00385 10.7458 3.7092 10.7204 3.42971 10.6756ZM8.14204 9.02146C8.14204 9.04291 8.14204 9.06437 8.13987 9.08778C8.11604 9.3238 7.97088 9.56763 7.72389 9.79389C7.42707 10.0611 6.98508 10.3049 6.43043 10.4785V9.35501C6.56043 9.32185 6.68609 9.28479 6.80958 9.24187C7.15407 9.12679 7.46823 8.98635 7.74338 8.8264C7.84521 8.76593 7.94487 8.70351 8.03587 8.63914C8.0727 8.61769 8.10737 8.59233 8.14204 8.56307V9.02146ZM8.03587 7.47464C7.9297 7.68141 7.73905 7.87841 7.47473 8.05787C7.2884 8.18661 7.06524 8.30754 6.80958 8.41092C6.51709 8.53186 6.17911 8.63329 5.80862 8.70351C5.40997 8.78153 4.97016 8.8264 4.50001 8.8264C3.59221 8.8264 2.79923 8.66255 2.18825 8.41092C1.93476 8.30754 1.7116 8.18661 1.52527 8.05787C1.26095 7.87841 1.0703 7.68141 0.964134 7.47464C0.892637 7.34591 0.857973 7.21912 0.857973 7.09038C0.857973 6.8212 1.02262 6.53837 1.31944 6.28284C1.81776 7.37712 2.67357 8.10078 3.64203 8.10078H5.78696C5.88879 8.10078 5.98844 8.09298 6.08811 8.07737C6.84208 7.95839 7.50722 7.40052 7.96004 6.58128C8.0792 6.75098 8.14204 6.92263 8.14204 7.09038C8.14204 7.21912 8.10736 7.34591 8.03587 7.47464Z" fill="#85D1F0"/>
<path d="M7.24721 4.75746L5.9061 5.96292L4.55847 4.74965L5.11095 4.25226L5.51178 4.61311V2.23535H6.29391V4.61897L6.69257 4.26005L7.24721 4.75746Z" fill="#85D1F0"/>
</svg>
