<svg width="15" height="17" viewBox="0 0 15 17" fill="none" xmlns="http://www.w3.org/2000/svg">
<path d="M9.85698 13.863L10.4344 14.4413C9.74341 14.5274 9.03507 14.49 8.35369 14.329C7.46636 14.1194 6.63485 13.7039 5.95154 13.1274L5.35486 13.7956C6.14788 14.4638 7.11027 14.9448 8.13812 15.1881C8.5173 15.2779 8.90226 15.3341 9.28914 15.3584C9.67026 15.3808 10.0514 15.3715 10.4306 15.3322L9.88776 15.8974L10.5538 16.5001L12.1263 14.8605L10.5076 13.2454L9.85698 13.863Z" fill="white"/>
<path d="M14.9731 7.64571C14.8787 6.64814 14.4726 5.73667 13.849 5.00675C13.7508 4.89258 13.6507 4.78403 13.5429 4.67922C13.4351 4.57441 13.3235 4.47522 13.2061 4.38164C12.4554 3.77524 11.5199 3.38033 10.4921 3.28862V4.17763C11.2678 4.26185 11.978 4.56131 12.5593 5.01237L11.8645 5.68801C11.4699 5.40353 11.0022 5.20888 10.494 5.13589V4.17763H9.5836V5.13589C9.44117 5.15648 9.3045 5.18643 9.16976 5.22573C9.16784 5.22199 9.16591 5.21825 9.16398 5.2145C8.98498 4.93376 8.77518 4.67173 8.54228 4.43404C8.86949 4.3049 9.21982 4.21881 9.58553 4.17763V3.28862C8.93879 3.34664 8.3267 3.52445 7.77814 3.79958C7.77429 3.79771 7.77235 3.79396 7.7685 3.79208C6.96971 3.25681 6.00154 2.94238 4.95829 2.94238C2.2193 2.94238 0 5.10033 0 7.76174C0 10.425 2.2193 12.5811 4.95829 12.5811C5.78019 12.5811 6.55397 12.3865 7.23535 12.0421C7.5337 11.8924 7.81664 11.7127 8.07456 11.5068C8.34019 11.2991 8.58462 11.0614 8.80405 10.8012C8.99845 10.5691 9.1717 10.3165 9.32183 10.0507C9.69909 9.36944 9.91659 8.58899 9.91659 7.75987C9.91659 7.1516 9.79918 6.56767 9.58745 6.03239C9.73374 6.00057 9.8858 5.98373 10.0417 5.98373C10.6365 5.98373 11.1754 6.21954 11.5681 6.59948H11.57C11.6778 6.70429 11.774 6.82033 11.8568 6.94573C12.0743 7.27326 12.2033 7.66441 12.2033 8.08365C12.2033 8.66385 11.9607 9.18976 11.57 9.56783C11.1773 9.94776 10.6403 10.1836 10.0436 10.1836C9.78956 10.1836 9.54703 10.1405 9.32183 10.0619C9.1717 10.3277 9.00038 10.5804 8.80405 10.8124C9.05042 10.9191 9.31413 10.9959 9.58938 11.0352V11.9915C9.04466 11.9317 8.53267 11.767 8.07456 11.518C7.81664 11.7239 7.5337 11.9017 7.23535 12.0533C7.91673 12.51 8.7213 12.8057 9.58938 12.8824C9.73952 12.8955 9.89157 12.903 10.0436 12.903C10.1957 12.903 10.3497 12.8974 10.4979 12.8824C11.5238 12.7907 12.4612 12.3958 13.2099 11.7894C13.3273 11.694 13.439 11.5966 13.5468 11.4918C13.6546 11.387 13.7566 11.2785 13.8528 11.1643C14.4784 10.4363 14.8845 9.52479 14.9788 8.52536C14.9923 8.37937 15 8.23151 15 8.08365C15 7.9358 14.9865 7.79169 14.9731 7.64571ZM8.54035 9.58655C8.0938 10.4101 7.35854 11.0632 6.46543 11.4132C5.9977 11.5985 5.48761 11.6996 4.95251 11.6996C2.71974 11.6996 0.904671 9.93467 0.904671 7.76362C0.904671 5.59444 2.71974 3.82764 4.95251 3.82764C5.66662 3.82764 6.33839 4.0092 6.92161 4.3255C7.20263 4.47709 7.46055 4.66051 7.69346 4.87012C7.93406 5.08536 8.14769 5.32867 8.32863 5.59443C8.49608 5.84148 8.63853 6.10912 8.74632 6.39173C8.90993 6.81846 9.00038 7.28075 9.00038 7.76362C9.00038 8.42055 8.83484 9.04192 8.54035 9.58655ZM10.4921 11.999V11.0426C11.0003 10.9697 11.468 10.775 11.8626 10.4905L12.5574 11.1662C11.9761 11.6154 11.2659 11.9148 10.4921 11.999ZM13.1984 10.5392L12.5035 9.86354C12.7961 9.47987 12.9963 9.02507 13.0713 8.53097H14.0568C13.9702 9.28522 13.6642 9.97584 13.1984 10.5392ZM13.0733 7.64571C12.9982 7.1516 12.798 6.69867 12.5055 6.31499L13.2003 5.63747C13.6642 6.20083 13.9702 6.89145 14.0588 7.64571H13.0733Z" fill="white"/>
<path d="M5.47798 7.36497C5.40484 7.33129 5.32783 7.30134 5.24699 7.26952C4.69842 7.06926 4.65994 6.97194 4.65994 6.83906C4.65994 6.66126 4.82931 6.54334 5.08146 6.54334C5.21427 6.54334 5.34709 6.56393 5.47606 6.60323C5.49723 6.60885 5.52032 6.61633 5.54149 6.62382C5.66083 6.67061 5.79365 6.66874 5.91106 6.61446C6.02848 6.56206 6.11893 6.46286 6.16513 6.33933C6.24982 6.09977 6.12086 5.83962 5.87641 5.74979C5.77632 5.71423 5.64159 5.67305 5.47606 5.64685V5.54765C5.47606 5.30434 5.27203 5.10596 5.02181 5.10596C4.76966 5.10596 4.56753 5.30434 4.56753 5.54765V5.68241C3.95737 5.85086 3.56472 6.31126 3.56472 6.91391C3.56472 7.28075 3.74179 7.77485 4.56753 8.10612C4.61373 8.12484 4.66378 8.14356 4.71575 8.16228C5.24122 8.35318 5.28358 8.4898 5.28358 8.64701C5.28358 8.95396 4.91785 8.98765 4.76001 8.98765C4.69842 8.98765 4.6349 8.98203 4.56753 8.97267C4.44242 8.95395 4.30771 8.91652 4.18067 8.86599C4.05748 8.81545 3.91888 8.81733 3.79954 8.87161C3.67827 8.92588 3.58589 9.02882 3.53777 9.16545C3.45693 9.40127 3.58396 9.65768 3.82263 9.74939C4.04784 9.83548 4.30191 9.88789 4.56946 9.90286V10.0339C4.56946 10.2791 4.77156 10.4756 5.02371 10.4756C5.27393 10.4756 5.47798 10.2791 5.47798 10.0339V9.79805C6.04772 9.60528 6.39034 9.16919 6.39034 8.58525C6.39034 8.04061 6.09777 7.64946 5.47798 7.36497Z" fill="white"/>
<path d="M7.80894 2.30393L7.0775 1.92588C7.70884 1.63953 8.39407 1.46546 9.09469 1.4168C10.0071 1.35317 10.9271 1.50289 11.7586 1.84914L12.1166 1.03687C11.1523 0.634479 10.084 0.460421 9.02926 0.535285C8.25934 0.589562 7.50097 0.774843 6.80034 1.07804L7.14101 0.378066L6.31914 0L5.33557 2.02694L7.38354 3.08626L7.80894 2.30393Z" fill="white"/>
</svg>
