<svg width="74" height="86" viewBox="0 0 74 86" fill="none" xmlns="http://www.w3.org/2000/svg">
<path d="M51.2642 80.0656C69.3007 80.0656 83.9222 77.7356 83.9222 74.8614C83.9222 71.9872 69.3007 69.6572 51.2642 69.6572C33.2277 69.6572 18.6062 71.9872 18.6062 74.8614C18.6062 77.7356 33.2277 80.0656 51.2642 80.0656Z" fill="#CE4910"/>
<path d="M83.9167 75.2982L80.6781 81.0723L80.3851 81.5784V81.589C79.0109 82.9527 72.7893 84.1032 64.2293 84.6785C64.1121 84.6892 63.9842 84.6892 63.8511 84.6998C63.2172 84.7478 62.5833 84.7797 61.9281 84.8064C58.6895 84.9928 55.1686 85.0887 51.4932 85.0887C37.2655 85.0887 25.4083 83.6664 22.8249 81.7914V81.7808H22.8142C22.6012 81.6263 22.452 81.4665 22.3668 81.3014L22.3295 81.2321L21.6583 80.0603L18.8032 75.0479C19.1335 75.4953 19.9058 75.9161 21.083 76.305L21.0937 76.3156C23.2191 77.0294 26.6122 77.6633 30.8842 78.148C36.5198 78.7712 43.6895 79.1601 51.4878 79.1601C55.925 79.1601 60.1384 79.0322 63.9896 78.8085C64.8472 78.7606 65.6781 78.702 66.4878 78.6434C68.4853 78.5049 70.3497 78.3397 72.0862 78.148C78.2598 77.4449 82.6064 76.4434 83.9061 75.3089L83.9167 75.2982Z" fill="#FF8D12"/>
<path d="M98.416 33.5637C98.3681 33.6703 98.3308 33.7715 98.2829 33.878C98.2722 33.8993 98.2669 33.9259 98.2562 33.9472C97.9473 34.7356 97.6171 35.5346 97.2974 36.323C96.7009 37.7984 96.1149 39.2686 95.513 40.7494C93.7073 45.2185 91.9121 49.6823 90.1011 54.1408C90.1011 54.1408 90.0851 54.1727 90.0638 54.2366C90.0372 54.2952 90.0105 54.3538 89.9892 54.4177C89.9839 54.4444 89.9732 54.471 89.9626 54.503C89.9146 54.6095 89.8667 54.716 89.8188 54.8226C88.5723 57.9121 87.3312 61.0015 86.0794 64.091C86.0475 64.1709 86.0155 64.2455 85.9835 64.3254C84.54 67.9156 83.0965 71.5005 81.6476 75.0853C81.4878 75.1546 81.2747 75.2398 81.051 75.309H81.0404C80.6888 75.4262 80.2733 75.5434 79.7992 75.6553C79.6394 75.6926 79.469 75.7352 79.2932 75.7725C77.9402 76.0601 76.1877 76.3211 74.121 76.5555C73.077 76.6727 71.9583 76.7792 70.7652 76.8804C70.3337 76.9177 69.8863 76.9497 69.4388 76.9869C68.7463 77.0455 68.0326 77.0935 67.2922 77.1414C66.5997 77.184 65.8699 77.2213 65.1348 77.2693C64.6395 77.2906 64.1228 77.3172 63.6061 77.3385C63.3344 77.3492 63.0681 77.3598 62.7964 77.3598C62.1519 77.3971 61.4807 77.4184 60.7989 77.445C58.5457 77.5143 56.186 77.5622 53.7464 77.5835C52.9687 77.5942 52.1856 77.5942 51.3866 77.5942H51.2801C50.4811 77.5942 49.6981 77.5942 48.9204 77.5835C45.3622 77.5622 41.985 77.4664 38.8742 77.3279C34.6129 77.1254 30.8522 76.8325 27.848 76.4703C27.4485 76.417 27.065 76.369 26.6921 76.3211C26.3725 76.2732 26.0582 76.2306 25.7599 76.1879C24.2205 75.9536 22.9634 75.6926 22.0366 75.4262C21.7329 75.3303 21.4559 75.2345 21.2269 75.1386C21.2056 75.1386 21.1843 75.1226 21.163 75.1066C21.1363 75.1066 21.1044 75.0853 21.0777 75.0747C20.9233 74.6965 20.7688 74.3076 20.6196 73.9347C16.1559 62.8872 11.6974 51.8396 7.23366 40.7814C6.63707 39.2899 6.0245 37.8144 5.42791 36.323C5.25213 35.8968 5.087 35.4654 4.91122 35.0392L4.52237 34.0698L4.30931 33.5637C4.01634 32.8446 4.7461 32.1308 5.45987 32.4451C6.57848 32.9298 7.67045 33.3986 8.71448 33.846C9.75852 34.2882 10.7706 34.7249 11.756 35.1244C12.0224 35.231 12.294 35.3482 12.555 35.4387C15.3675 36.5893 17.8711 37.5801 19.9698 38.3631C20.3 38.4803 20.6303 38.5974 20.9339 38.7146C21.7223 39.0076 22.4467 39.2686 23.1072 39.4923C23.3522 39.5722 23.5973 39.6575 23.8316 39.7374L23.9755 39.7853C24.9609 40.0996 25.7333 40.334 26.2979 40.4671C26.9797 40.6322 27.8746 40.7814 28.9506 40.7228C28.9506 40.7228 31.0067 40.6163 33.3771 39.3006C33.5422 39.2207 33.7073 39.1141 33.8831 39.0076C34.0589 38.9064 34.224 38.7892 34.3998 38.6667C34.4105 38.656 34.4211 38.6454 34.4211 38.6454C37.2656 36.6639 43.8281 23.2193 50.5663 3.74488C50.6835 3.42528 50.9286 3.23884 51.2109 3.18025H51.2215C51.6104 3.10035 52.0418 3.27613 52.207 3.73422C52.2176 3.76618 52.2336 3.79282 52.2442 3.82478C59.3074 23.1713 65.6835 36.6852 68.3042 38.6454C68.7357 38.965 69.1725 39.2313 69.5826 39.455C69.7211 39.5403 69.865 39.6095 69.9928 39.6681C70.2165 39.7853 70.4402 39.8918 70.6373 39.9717C71.5056 40.3499 72.1181 40.4884 72.1181 40.4884C72.9065 40.6749 73.5723 40.7121 73.7747 40.7228C73.7747 40.7228 75.0745 40.7814 76.4274 40.4671C77.0134 40.3233 77.8337 40.0783 78.8777 39.7374H78.8937L78.9523 39.7161C82.7076 38.4696 89.2115 35.9448 97.2655 32.4451C97.4839 32.3546 97.7076 32.3546 97.8994 32.4238L98.2243 32.6209L98.2349 32.6369C98.4587 32.8713 98.5545 33.2122 98.416 33.5637Z" fill="#FF9810"/>
<g style="mix-blend-mode:overlay" opacity="0.4">
<path d="M13.6471 38.214L23.3363 69.0928L9.45496 36.0566L13.6471 38.214Z" fill="#FFEFB0"/>
</g>
<path d="M37.0845 38.2139C37.0845 38.2139 51.3281 13.791 51.653 13.9082C51.9779 14.0254 65.9552 38.0648 65.9552 38.0648L51.653 5.26831L37.0845 38.2086V38.2139Z" fill="#FFEFB0"/>
<path d="M98.416 33.5637C98.3681 33.6703 98.3308 33.7715 98.2829 33.878C98.2722 33.8993 98.2669 33.9259 98.2562 33.9472C97.9473 34.7356 97.617 35.5346 97.2974 36.3229C96.7008 37.7984 96.1149 39.2686 95.513 40.7494C93.7072 45.2185 91.9121 49.6823 90.1011 54.1407C90.1011 54.1407 90.0851 54.1727 90.0638 54.2366C90.0371 54.2952 90.0105 54.3538 89.9892 54.4177C89.9839 54.4444 89.9732 54.471 89.9626 54.503C89.9146 54.6095 89.8667 54.716 89.8187 54.8226C88.5723 57.912 87.3312 61.0015 86.0794 64.091C86.0474 64.1709 86.0155 64.2455 85.9835 64.3254C84.54 67.9156 83.0965 71.5004 81.6476 75.0853C81.4878 75.1546 81.2747 75.2398 81.051 75.309H81.0404C80.6888 75.4262 80.2733 75.5434 79.7992 75.6553C79.6394 75.6926 79.469 75.7352 79.2932 75.7725C77.9402 76.0601 76.1877 76.3211 74.121 76.5555C73.0769 76.6727 71.9583 76.7792 70.7652 76.8804C70.3337 76.9177 69.8863 76.9497 69.4388 76.9869C68.7463 77.0455 68.0326 77.0935 67.2922 77.1414C66.5997 77.184 65.8699 77.2213 65.1348 77.2693C64.6395 77.2906 64.1228 77.3172 63.6061 77.3385L63.7765 76.4543V76.4117L70.1686 42.4966L70.6373 39.9717C71.5056 40.3499 72.1181 40.4884 72.1181 40.4884C72.9065 40.6749 73.5723 40.7121 73.7747 40.7228C73.7747 40.7228 75.0745 40.7814 76.4274 40.4671C77.0134 40.3233 77.8337 40.0783 78.8777 39.7374H78.8937L78.9523 39.7161C82.7076 38.4696 89.2115 35.9448 97.2655 32.4451C97.4839 32.3546 97.7076 32.3546 97.8993 32.4238L98.2243 32.6209L98.2349 32.6369C98.4586 32.8712 98.5545 33.2122 98.416 33.5637Z" fill="#EF7110"/>
<path d="M73.4445 40.7013L64.4157 77.3064C64.144 77.317 63.8777 77.3277 63.606 77.3437C63.3344 77.3543 63.068 77.365 62.7964 77.365L69.5826 39.4602C69.9608 39.6733 70.3124 39.8384 70.6373 39.9769C71.5055 40.3551 72.1181 40.4936 72.1181 40.4936C72.6454 40.6214 73.1302 40.68 73.4445 40.7067V40.7013Z" fill="#FFC870"/>
<path d="M38.8742 77.3277C33.5581 77.0826 29.0251 76.6831 25.7599 76.1878L11.756 35.1243C18.9417 38.0806 24.1991 39.9716 26.3032 40.4669C26.985 40.6321 27.8746 40.7812 28.9559 40.7226C28.9559 40.7226 29.7283 40.6853 30.8948 40.3444L38.8795 77.3223L38.8742 77.3277Z" fill="#FFC870"/>
<path d="M20.6196 73.9346C16.1612 62.887 11.6974 51.8395 7.23894 40.7812C6.46657 38.869 5.68887 36.9567 4.9165 35.0391L7.13241 35.5344L20.6249 73.9293L20.6196 73.9346Z" fill="#FFEFB0"/>
<path d="M18.1427 41.0369C18.1427 41.0369 24.6892 61.1718 24.9129 61.2943C25.1367 61.4168 30.6072 65.4598 30.6072 65.4598L28.3593 42.3046L18.1427 41.0369Z" fill="#FFEFB0"/>
<path d="M39.4229 77.7165C39.0606 77.2637 31.9602 42.7148 31.9602 42.7148L30.6072 41.3618L39.4229 77.7165Z" fill="#FFEFB0"/>
<path d="M98.416 33.5637C98.368 33.6703 98.3361 33.7768 98.2882 33.878C97.9686 34.6877 97.633 35.508 97.3027 36.3176C87.2299 40.2594 79.6927 42.7842 77.04 43.3489C75.655 43.6418 74.3287 43.5832 74.3287 43.5832C74.1156 43.5832 73.4391 43.5459 72.6241 43.3702C72.6241 43.3702 71.5215 43.1358 70.1685 42.4913C69.6998 42.2675 69.1937 41.9852 68.7143 41.6603C66.0403 39.8279 59.5098 27.2676 52.2655 9.27399C52.2548 9.2367 52.2442 9.21539 52.2282 9.19409C52.0524 8.7573 51.6156 8.5975 51.2161 8.6774H51.2055C50.9125 8.73599 50.6675 8.90112 50.5343 9.20474C43.6309 27.3208 36.9193 39.8226 34.0056 41.6656L33.9843 41.6869C31.1558 43.4607 28.3966 43.5886 28.3966 43.5886C27.294 43.6472 26.3778 43.5087 25.6853 43.3542C23.0326 42.7896 15.4953 40.2647 5.42254 36.3229C5.24676 35.9021 5.08163 35.4653 4.90585 35.0445L4.517 34.0698L4.30393 33.5637C4.01097 32.8499 4.74072 32.1308 5.4545 32.4504C6.56778 32.9298 7.65975 33.4039 8.70378 33.846C10.0408 34.4107 11.3192 34.9487 12.5443 35.444C15.3622 36.5946 17.8604 37.58 19.9644 38.3684C20.2947 38.4962 20.6196 38.6134 20.9286 38.72C21.7169 39.0129 22.4413 39.2739 23.1018 39.4923C23.3469 39.5722 23.5972 39.6575 23.8316 39.7374L23.9701 39.7853C24.9555 40.0996 25.7332 40.3393 26.2925 40.4671C26.9744 40.6322 27.8639 40.7814 28.9452 40.7228C28.9452 40.7228 31.0013 40.6163 33.3717 39.3006C33.5368 39.2207 33.7126 39.1141 33.8777 39.0076C34.0535 38.9011 34.2187 38.7839 34.3944 38.6667L34.4157 38.6454C37.2549 36.6639 43.8174 23.2193 50.5556 3.74488C50.6728 3.42528 50.9178 3.23884 51.2002 3.18025H51.2108C51.5997 3.10035 52.0311 3.27613 52.1963 3.73422C52.2069 3.77151 52.2176 3.79282 52.2335 3.8301C59.3021 23.1767 65.6728 36.6905 68.2935 38.6507C68.7303 38.9703 69.1618 39.2366 69.5719 39.4604C69.7104 39.5403 69.8543 39.6148 69.9821 39.6734C70.2058 39.7906 70.4295 39.8972 70.6266 39.9771C71.4949 40.3553 72.1074 40.4937 72.1074 40.4937C72.8958 40.6802 73.5616 40.7175 73.764 40.7281C73.764 40.7281 75.0691 40.7867 76.4167 40.4724C77.0027 40.3339 77.823 40.0836 78.8723 39.7427H78.883L78.9416 39.7214C82.6969 38.4749 89.2008 35.9554 97.2548 32.4558C97.4785 32.3599 97.7022 32.3599 97.8886 32.4345L98.2189 32.6315L98.2296 32.6422C98.4533 32.8766 98.5492 33.2175 98.4053 33.569L98.416 33.5637Z" fill="url(#paint0_linear_4_2995)"/>
<path d="M25.76 76.1878L16.4382 54.4868L22.0366 75.4261L25.76 76.1878Z" fill="#FF8511"/>
<path d="M23.8316 39.7373L4.52237 34.0697L4.30931 33.5637C4.01634 32.8499 4.7461 32.1308 5.45987 32.4504C13.5458 35.9607 20.087 38.4962 23.8316 39.7426V39.7373Z" fill="#FFEFB0"/>
<path d="M51.653 45.197L41.1807 49.208V63.0841L51.653 67.127L42.8692 61.6246V50.7048L51.653 45.197Z" fill="#FFC870"/>
<path opacity="0.5" d="M51.653 45.197L61.4221 49.7407L62.0933 62.333L55.4882 68.2563L51.653 67.127V45.197Z" fill="#EF7110"/>
<path d="M4.24009 37.1645C6.57887 37.1645 8.47482 35.2686 8.47482 32.9298C8.47482 30.591 6.57887 28.6951 4.24009 28.6951C1.90132 28.6951 0.00537109 30.591 0.00537109 32.9298C0.00537109 35.2686 1.90132 37.1645 4.24009 37.1645Z" fill="#FF9810"/>
<path opacity="0.22" d="M90.2502 53.7837C88.9345 57.2194 87.5069 60.6498 86.0794 64.0908C86.0474 64.1707 86.0155 64.2453 85.9835 64.3252C84.4974 67.9048 83.0112 71.479 81.6422 75.0532C81.4771 75.1278 81.264 75.213 81.0403 75.2876H81.0297C80.6781 75.4101 80.268 75.5326 79.7992 75.6551C79.6394 75.6924 79.469 75.735 79.2932 75.7723C77.9349 76.0812 76.1824 76.3635 74.0996 76.6086C73.0503 76.7364 71.921 76.8483 70.7119 76.9548C70.2751 76.9921 69.8276 77.0294 69.3802 77.0667C68.6824 77.1306 67.9633 77.1785 67.2229 77.2318C66.5251 77.2797 65.7953 77.317 65.0549 77.365C64.5595 77.3916 64.0375 77.4182 63.5208 77.4395C63.2492 77.4555 62.9775 77.4662 62.7058 77.4662C62.056 77.5035 61.3848 77.5301 60.703 77.5514C58.4392 77.626 56.0688 77.6792 53.6132 77.7006C52.8355 77.7165 52.0471 77.7165 51.2428 77.7165H51.1363C50.3373 77.7165 49.5436 77.7165 48.7659 77.7006C45.197 77.6792 41.7986 77.578 38.6718 77.4289C34.3945 77.2158 30.6178 76.9069 27.6029 76.518L26.6921 76.3209L21.2269 75.1384L20.7954 75.0425C20.9179 75.0638 21.0404 75.0905 21.1629 75.1065C35.4598 77.7698 51.7222 77.3863 63.6966 76.4594C63.7232 76.4594 63.7499 76.4541 63.7765 76.4541C68.1923 76.1132 71.905 75.5699 74.6856 75.0692C78.2065 74.4353 80.252 73.8653 80.4171 73.8334C80.9711 73.7535 87.9171 59.2702 89.9892 54.4176C90.0105 54.3536 90.0371 54.295 90.0638 54.2365C90.133 54.0713 90.1969 53.9222 90.2502 53.7837Z" fill="#A33A09"/>
<path d="M22.8249 81.7756H22.8143L21.6637 80.0498L18.8086 75.0374C19.1388 75.4848 19.9112 75.9056 21.0884 76.2945L21.0991 76.3051L22.8249 81.7756Z" fill="url(#paint1_linear_4_2995)"/>
<path d="M23.3363 76.9229C23.8423 77.0347 26.234 82.3401 26.234 82.3401L37.0791 83.6398L39.4176 78.8245C34.0536 78.1906 28.6949 77.5567 23.3309 76.9229H23.3363Z" fill="#FFC870"/>
<path d="M26.756 77.3278C26.756 77.3278 27.9385 81.0459 28.2368 80.9447C28.5351 80.8435 36.4293 80.9447 36.4293 80.9447L33.6008 78.4038L26.756 77.3225V77.3278Z" fill="#FFEFB0"/>
<path d="M83.9168 75.2983L80.6781 81.0724L80.3852 81.5785V81.5891C78.9896 82.9741 72.6029 84.1353 63.8564 84.6999L66.3547 78.6754L66.4932 78.6275C68.4907 78.489 70.355 78.3239 72.0915 78.1321C78.2652 77.429 82.6117 76.4276 83.9115 75.293L83.9168 75.2983Z" fill="#EF7110"/>
<path d="M66.4932 78.6328L64.2294 84.6786C64.1122 84.6893 63.9843 84.6893 63.8512 84.6999C63.2173 84.7479 62.5834 84.7798 61.9282 84.8065L63.995 78.7979L64.0536 78.6328H66.4932Z" fill="#FFC870"/>
<path style="mix-blend-mode:luminosity" opacity="0.6" d="M3.1534 35.7635C4.89498 35.7635 6.30681 34.2444 6.30681 32.3704C6.30681 30.4964 4.89498 28.9773 3.1534 28.9773C1.41183 28.9773 0 30.4964 0 32.3704C0 34.2444 1.41183 35.7635 3.1534 35.7635Z" fill="url(#paint2_linear_4_2995)"/>
<path style="mix-blend-mode:luminosity" opacity="0.6" d="M52.2655 6.44531C51.9619 6.89275 39.4228 78.8245 39.4228 78.8245L31.3795 45.1011L38.0432 34.8153L52.2655 6.44531Z" fill="url(#paint3_linear_4_2995)"/>
<path d="M51.7116 6.8396C53.2616 11.884 55.4349 17.6741 58.5084 23.8637C62.2797 31.4489 66.4292 37.6492 70.1686 42.5018C70.126 42.5977 68.1178 47.0881 68.1178 47.0881L56.3085 23.3843C56.3085 23.3843 55.7971 29.3982 55.4509 28.695C55.11 27.9919 49.9271 11.101 49.9271 11.101L51.7062 6.8396H51.7116Z" fill="url(#paint4_linear_4_2995)"/>
<path d="M51.2162 8.47457C53.5549 8.47457 55.4509 6.57862 55.4509 4.23985C55.4509 1.90108 53.5549 0.00512695 51.2162 0.00512695C48.8774 0.00512695 46.9814 1.90108 46.9814 4.23985C46.9814 6.57862 48.8774 8.47457 51.2162 8.47457Z" fill="#FF9810"/>
<path d="M51.7116 8.44281C51.5465 8.46412 51.3814 8.4801 51.2162 8.4801C48.8672 8.4801 46.9762 6.57847 46.9762 4.24005C46.9762 1.90163 48.8672 0 51.2162 0C51.3814 0 51.5465 0.0106532 51.7116 0.0372867C49.6129 0.282315 47.9776 2.07741 47.9776 4.24005C47.9776 6.40269 49.6076 8.19778 51.7116 8.44281Z" fill="#EF7110"/>
<path d="M50.7208 0.0372867C50.886 0.0159799 51.0511 0 51.2162 0C53.5653 0 55.4563 1.90163 55.4563 4.24005C55.4563 6.57847 53.5653 8.4801 51.2162 8.4801C51.0511 8.4801 50.886 8.46945 50.7208 8.44281C52.8195 8.19778 54.4548 6.40269 54.4548 4.24005C54.4548 2.07741 52.8249 0.282315 50.7208 0.0372867Z" fill="#FFC870"/>
<path style="mix-blend-mode:luminosity" opacity="0.6" d="M50.7209 7.0262C52.4625 7.0262 53.8743 5.50705 53.8743 3.63309C53.8743 1.75913 52.4625 0.23999 50.7209 0.23999C48.9793 0.23999 47.5675 1.75913 47.5675 3.63309C47.5675 5.50705 48.9793 7.0262 50.7209 7.0262Z" fill="url(#paint5_linear_4_2995)"/>
<path d="M51.717 45.1975L42.928 50.7053V61.625L51.717 67.1275L60.4901 61.625V50.7053L51.717 45.1975Z" fill="#1E114C"/>
<path d="M51.717 45.9006V49.0167L46.0121 52.591L43.5245 51.0356L51.717 45.9006Z" fill="#4A28CC"/>
<path d="M59.8935 51.0356L57.4113 52.591L51.717 49.0167V45.9006L59.8935 51.0356Z" fill="#281D93"/>
<path d="M59.8935 51.0356V61.2949L57.4113 59.7395V52.591L59.8935 51.0356Z" fill="#1B187A"/>
<path d="M59.8935 61.2949L51.717 66.4298V63.3084L57.4113 59.7395L59.8935 61.2949Z" fill="#13135E"/>
<path d="M51.717 63.3084V66.4298L43.5245 61.2949L46.0121 59.7395L51.717 63.3084Z" fill="#1B187A"/>
<path d="M46.0121 52.591V59.7395L43.5245 61.2949V51.0356L46.0121 52.591Z" fill="#281D93"/>
<path d="M57.4112 52.5911V59.7395L51.717 63.3084L46.0121 59.7395V52.5911L51.717 49.0168L57.4112 52.5911Z" fill="#6543E5"/>
<path style="mix-blend-mode:screen" opacity="0.6" d="M43.5245 51.0356L46.0121 52.591L51.717 49.0167L47.0508 51.4564L51.7117 47.8076L51.717 45.9006L43.5245 51.0356Z" fill="url(#paint6_linear_4_2995)"/>
<path style="mix-blend-mode:screen" opacity="0.6" d="M59.8935 51.0356L57.2888 52.5111L52.8676 49.7412L57.1077 52.7188L57.1609 59.4358L51.717 63.3083L57.4113 59.7394V52.7455L59.8935 51.0356Z" fill="url(#paint7_linear_4_2995)"/>
<path style="mix-blend-mode:luminosity" opacity="0.3" d="M51.1523 57.0548C46.5447 57.4703 46.4701 54.3648 46.0067 52.5857L51.7063 47.0833C52.2283 47.9089 53.3416 50.0289 53.6825 51.1475C54.7105 54.514 52.8089 56.9057 51.1523 57.0548Z" fill="url(#paint8_linear_4_2995)"/>
<path style="mix-blend-mode:overlay" opacity="0.2" d="M47.6634 60.7728L43.5245 51.0356C44.0785 54.8016 44.6325 58.5676 45.1865 62.3336L47.6634 60.7728Z" fill="url(#paint9_linear_4_2995)"/>
<path style="mix-blend-mode:overlay" opacity="0.2" d="M45.9642 55.5048L51.717 49.0168C48.9898 49.688 46.2572 50.3592 43.5299 51.0303L45.9642 55.5048Z" fill="url(#paint10_linear_4_2995)"/>
<path style="mix-blend-mode:overlay" opacity="0.2" d="M51.7171 45.9006L57.2888 52.5111L51.7171 49.0167L45.8896 49.5494L51.7171 45.9006Z" fill="url(#paint11_linear_4_2995)"/>
<path style="mix-blend-mode:overlay" opacity="0.2" d="M51.717 66.4298L46.0121 59.7395L51.717 63.3084V66.4298Z" fill="url(#paint12_linear_4_2995)"/>
<path opacity="0.25" d="M50.9978 14.8137L53.9754 39.7373L43.5244 51.0353L51.7169 49.0164L57.4111 59.7391L60.9693 43.6045L50.9978 14.8137Z" fill="#FFEFB0"/>
<path opacity="0.25" d="M7.79834 37.4575L20.7955 75.0427L25.76 76.1879L10.3445 38.2139L7.79834 37.4575Z" fill="#FFEFB0"/>
<path d="M23.3363 76.9229C23.3363 76.9229 43.2049 81.8447 70.7652 78.8245L71.0049 78.3664C71.0049 78.3664 44.6537 80.9498 23.3363 76.9229Z" fill="url(#paint13_linear_4_2995)"/>
<path d="M24.375 81.717C24.375 81.717 37.9474 83.8637 54.6306 83.64C54.6306 83.64 48.5795 83.9756 37.4574 84.0448L24.375 81.717Z" fill="url(#paint14_linear_4_2995)"/>
<path opacity="0.36" d="M83.416 76.1882C83.416 76.1882 79.1546 81.5788 78.9522 81.5788C78.7498 81.5788 66.4984 82.8839 66.4984 82.8839L73.4498 80.2845L76.5765 79.8104L83.4213 76.1936L83.416 76.1882Z" fill="url(#paint15_linear_4_2995)"/>
<defs>
<linearGradient id="paint0_linear_4_2995" x1="4.24534" y1="23.3844" x2="98.4799" y2="23.3844" gradientUnits="userSpaceOnUse">
<stop stop-color="#FFD31F"/>
<stop offset="0.96" stop-color="#FFD31F"/>
<stop offset="1" stop-color="#FFD621"/>
</linearGradient>
<linearGradient id="paint1_linear_4_2995" x1="18.8086" y1="78.4091" x2="22.8249" y2="78.4091" gradientUnits="userSpaceOnUse">
<stop stop-color="#FFD31F"/>
<stop offset="0.96" stop-color="#FFD31F"/>
<stop offset="1" stop-color="#FFD621"/>
</linearGradient>
<linearGradient id="paint2_linear_4_2995" x1="4.15482" y1="31.4276" x2="-0.490056" y2="35.8221" gradientUnits="userSpaceOnUse">
<stop stop-color="#FECD00" stop-opacity="0.4"/>
<stop offset="0.05" stop-color="#FECF12" stop-opacity="0.45"/>
<stop offset="0.36" stop-color="#FEE285" stop-opacity="0.74"/>
<stop offset="0.58" stop-color="#FEEDCD" stop-opacity="0.93"/>
<stop offset="0.68" stop-color="#FFF2EA"/>
</linearGradient>
<linearGradient id="paint3_linear_4_2995" x1="49.6021" y1="41.8412" x2="60.0798" y2="39.6253" gradientUnits="userSpaceOnUse">
<stop stop-color="#FECD00" stop-opacity="0.4"/>
<stop offset="0.06" stop-color="#FECE07" stop-opacity="0.42"/>
<stop offset="0.16" stop-color="#FED11A" stop-opacity="0.47"/>
<stop offset="0.27" stop-color="#FED63A" stop-opacity="0.55"/>
<stop offset="0.39" stop-color="#FEDD67" stop-opacity="0.67"/>
<stop offset="0.53" stop-color="#FEE6A0" stop-opacity="0.81"/>
<stop offset="0.67" stop-color="#FEF1E5" stop-opacity="0.99"/>
<stop offset="0.68" stop-color="#FFF2EA"/>
</linearGradient>
<linearGradient id="paint4_linear_4_2995" x1="59.35" y1="27.6084" x2="73.4392" y2="11.4259" gradientUnits="userSpaceOnUse">
<stop stop-color="#FECD00" stop-opacity="0.4"/>
<stop offset="0.06" stop-color="#FECE07" stop-opacity="0.42"/>
<stop offset="0.16" stop-color="#FED11A" stop-opacity="0.47"/>
<stop offset="0.27" stop-color="#FED63A" stop-opacity="0.55"/>
<stop offset="0.39" stop-color="#FEDD67" stop-opacity="0.67"/>
<stop offset="0.53" stop-color="#FEE6A0" stop-opacity="0.81"/>
<stop offset="0.67" stop-color="#FEF1E5" stop-opacity="0.99"/>
<stop offset="0.68" stop-color="#FFF2EA"/>
</linearGradient>
<linearGradient id="paint5_linear_4_2995" x1="50.1083" y1="0.12813" x2="51.1577" y2="6.12066" gradientUnits="userSpaceOnUse">
<stop stop-color="#FECD00" stop-opacity="0.4"/>
<stop offset="0.06" stop-color="#FECE07" stop-opacity="0.42"/>
<stop offset="0.16" stop-color="#FED11A" stop-opacity="0.47"/>
<stop offset="0.27" stop-color="#FED63A" stop-opacity="0.55"/>
<stop offset="0.39" stop-color="#FEDD67" stop-opacity="0.67"/>
<stop offset="0.53" stop-color="#FEE6A0" stop-opacity="0.81"/>
<stop offset="0.67" stop-color="#FEF1E5" stop-opacity="0.99"/>
<stop offset="0.68" stop-color="#FFF2EA"/>
</linearGradient>
<linearGradient id="paint6_linear_4_2995" x1="53.3523" y1="45.6023" x2="44.4247" y2="52.4951" gradientUnits="userSpaceOnUse">
<stop stop-color="#FECD00" stop-opacity="0.4"/>
<stop offset="0.13" stop-color="#FECD02" stop-opacity="0.41"/>
<stop offset="0.22" stop-color="#FECE0C" stop-opacity="0.43"/>
<stop offset="0.3" stop-color="#FED01C" stop-opacity="0.47"/>
<stop offset="0.38" stop-color="#FED332" stop-opacity="0.53"/>
<stop offset="0.45" stop-color="#FED74F" stop-opacity="0.6"/>
<stop offset="0.52" stop-color="#FEDC72" stop-opacity="0.69"/>
<stop offset="0.58" stop-color="#FEE29D" stop-opacity="0.8"/>
<stop offset="0.65" stop-color="#FEE9CC" stop-opacity="0.93"/>
<stop offset="0.68" stop-color="#FEEDEA"/>
</linearGradient>
<linearGradient id="paint7_linear_4_2995" x1="61.614" y1="49.7412" x2="48.6382" y2="59.7554" gradientUnits="userSpaceOnUse">
<stop stop-color="#FECD00" stop-opacity="0.4"/>
<stop offset="0.13" stop-color="#FECD02" stop-opacity="0.41"/>
<stop offset="0.22" stop-color="#FECE0C" stop-opacity="0.43"/>
<stop offset="0.3" stop-color="#FED01C" stop-opacity="0.47"/>
<stop offset="0.38" stop-color="#FED332" stop-opacity="0.53"/>
<stop offset="0.45" stop-color="#FED74F" stop-opacity="0.6"/>
<stop offset="0.52" stop-color="#FEDC72" stop-opacity="0.69"/>
<stop offset="0.58" stop-color="#FEE29D" stop-opacity="0.8"/>
<stop offset="0.65" stop-color="#FEE9CC" stop-opacity="0.93"/>
<stop offset="0.68" stop-color="#FEEDEA"/>
</linearGradient>
<linearGradient id="paint8_linear_4_2995" x1="47.1147" y1="48.7771" x2="54.3536" y2="57.1401" gradientUnits="userSpaceOnUse">
<stop stop-color="#FECD00" stop-opacity="0.4"/>
<stop offset="0.13" stop-color="#FECD02" stop-opacity="0.41"/>
<stop offset="0.22" stop-color="#FECE0C" stop-opacity="0.43"/>
<stop offset="0.3" stop-color="#FED01C" stop-opacity="0.47"/>
<stop offset="0.38" stop-color="#FED332" stop-opacity="0.53"/>
<stop offset="0.45" stop-color="#FED74F" stop-opacity="0.6"/>
<stop offset="0.52" stop-color="#FEDC72" stop-opacity="0.69"/>
<stop offset="0.58" stop-color="#FEE29D" stop-opacity="0.8"/>
<stop offset="0.65" stop-color="#FEE9CC" stop-opacity="0.93"/>
<stop offset="0.68" stop-color="#FEEDEA"/>
</linearGradient>
<linearGradient id="paint9_linear_4_2995" x1="48.6573" y1="66.9068" x2="43.7932" y2="55.2512" gradientUnits="userSpaceOnUse">
<stop offset="0.38" stop-color="white"/>
<stop offset="0.56" stop-color="#FDFDFE" stop-opacity="0.99"/>
<stop offset="0.63" stop-color="#F9F8FA" stop-opacity="0.97"/>
<stop offset="0.68" stop-color="#F2EEF4" stop-opacity="0.93"/>
<stop offset="0.72" stop-color="#E8E1EC" stop-opacity="0.88"/>
<stop offset="0.75" stop-color="#DBCFE1" stop-opacity="0.8"/>
<stop offset="0.78" stop-color="#CBBAD3" stop-opacity="0.71"/>
<stop offset="0.81" stop-color="#B8A0C3" stop-opacity="0.61"/>
<stop offset="0.83" stop-color="#A182B0" stop-opacity="0.48"/>
<stop offset="0.86" stop-color="#89629B" stop-opacity="0.35"/>
<stop offset="0.88" stop-color="#6F3F85" stop-opacity="0.2"/>
</linearGradient>
<linearGradient id="paint10_linear_4_2995" x1="43.711" y1="54.0133" x2="48.9259" y2="50.2633" gradientUnits="userSpaceOnUse">
<stop offset="0.38" stop-color="white"/>
<stop offset="0.56" stop-color="#FDFDFE" stop-opacity="0.99"/>
<stop offset="0.63" stop-color="#F9F8FA" stop-opacity="0.97"/>
<stop offset="0.68" stop-color="#F2EEF4" stop-opacity="0.93"/>
<stop offset="0.72" stop-color="#E8E1EC" stop-opacity="0.88"/>
<stop offset="0.75" stop-color="#DBCFE1" stop-opacity="0.8"/>
<stop offset="0.78" stop-color="#CBBAD3" stop-opacity="0.71"/>
<stop offset="0.81" stop-color="#B8A0C3" stop-opacity="0.61"/>
<stop offset="0.83" stop-color="#A182B0" stop-opacity="0.48"/>
<stop offset="0.86" stop-color="#89629B" stop-opacity="0.35"/>
<stop offset="0.88" stop-color="#6F3F85" stop-opacity="0.2"/>
</linearGradient>
<linearGradient id="paint11_linear_4_2995" x1="55.4777" y1="55.6751" x2="48.8406" y2="47.749" gradientUnits="userSpaceOnUse">
<stop offset="0.38" stop-color="white"/>
<stop offset="0.56" stop-color="#FDFDFE" stop-opacity="0.99"/>
<stop offset="0.63" stop-color="#F9F8FA" stop-opacity="0.97"/>
<stop offset="0.68" stop-color="#F2EEF4" stop-opacity="0.93"/>
<stop offset="0.72" stop-color="#E8E1EC" stop-opacity="0.88"/>
<stop offset="0.75" stop-color="#DBCFE1" stop-opacity="0.8"/>
<stop offset="0.78" stop-color="#CBBAD3" stop-opacity="0.71"/>
<stop offset="0.81" stop-color="#B8A0C3" stop-opacity="0.61"/>
<stop offset="0.83" stop-color="#A182B0" stop-opacity="0.48"/>
<stop offset="0.86" stop-color="#89629B" stop-opacity="0.35"/>
<stop offset="0.88" stop-color="#6F3F85" stop-opacity="0.2"/>
</linearGradient>
<linearGradient id="paint12_linear_4_2995" x1="51.7756" y1="64.933" x2="47.168" y2="59.8673" gradientUnits="userSpaceOnUse">
<stop offset="0.38" stop-color="white"/>
<stop offset="0.56" stop-color="#FDFDFE" stop-opacity="0.99"/>
<stop offset="0.63" stop-color="#F9F8FA" stop-opacity="0.97"/>
<stop offset="0.68" stop-color="#F2EEF4" stop-opacity="0.93"/>
<stop offset="0.72" stop-color="#E8E1EC" stop-opacity="0.88"/>
<stop offset="0.75" stop-color="#DBCFE1" stop-opacity="0.8"/>
<stop offset="0.78" stop-color="#CBBAD3" stop-opacity="0.71"/>
<stop offset="0.81" stop-color="#B8A0C3" stop-opacity="0.61"/>
<stop offset="0.83" stop-color="#A182B0" stop-opacity="0.48"/>
<stop offset="0.86" stop-color="#89629B" stop-opacity="0.35"/>
<stop offset="0.88" stop-color="#6F3F85" stop-opacity="0.2"/>
</linearGradient>
<linearGradient id="paint13_linear_4_2995" x1="23.3363" y1="78.3664" x2="71.0049" y2="78.3664" gradientUnits="userSpaceOnUse">
<stop stop-color="#FFD31F"/>
<stop offset="0.96" stop-color="#FFD31F"/>
<stop offset="1" stop-color="#FFD621"/>
</linearGradient>
<linearGradient id="paint14_linear_4_2995" x1="24.375" y1="82.8836" x2="54.6306" y2="82.8836" gradientUnits="userSpaceOnUse">
<stop stop-color="#FFD31F"/>
<stop offset="0.96" stop-color="#FFD31F"/>
<stop offset="1" stop-color="#FFD621"/>
</linearGradient>
<linearGradient id="paint15_linear_4_2995" x1="66.4931" y1="79.5387" x2="83.416" y2="79.5387" gradientUnits="userSpaceOnUse">
<stop stop-color="#FFD31F"/>
<stop offset="0.96" stop-color="#FFD31F"/>
<stop offset="1" stop-color="#FFD621"/>
</linearGradient>
</defs>
</svg>
