<svg width="32" height="32" viewBox="0 0 32 32" fill="none" xmlns="http://www.w3.org/2000/svg">
<circle cx="16" cy="16" r="16" fill="#2A2F36"/>
<path d="M21.424 20.416H10.576C9.80866 20.416 9.18402 19.7914 9.18402 19.024V11.6C9.18402 10.8326 9.80866 10.208 10.576 10.208H21.424C22.1914 10.208 22.816 10.8326 22.816 11.6V19.024C22.816 19.7914 22.1914 20.416 21.424 20.416ZM10.576 10.528C9.98466 10.528 9.50402 11.0086 9.50402 11.6V19.024C9.50402 19.6154 9.98466 20.096 10.576 20.096H21.424C22.0154 20.096 22.496 19.6154 22.496 19.024V11.6C22.496 11.0086 22.0154 10.528 21.424 10.528H10.576Z" fill="white"/>
<path d="M22.656 18.7265H9.34402C9.2557 18.7265 9.18402 18.6548 9.18402 18.5665C9.18402 18.4782 9.2557 18.4065 9.34402 18.4065H22.656C22.7443 18.4065 22.816 18.4782 22.816 18.5665C22.816 18.6548 22.7443 18.7265 22.656 18.7265Z" fill="white"/>
<path d="M20.5568 21.7919H11.872C11.7837 21.7919 11.712 21.7202 11.712 21.6319C11.712 21.5436 11.7837 21.4719 11.872 21.4719H20.5568C20.6452 21.4719 20.7168 21.5436 20.7168 21.6319C20.7168 21.7202 20.6452 21.7919 20.5568 21.7919Z" fill="white"/>
<path d="M13.0291 21.7919C13.0042 21.7919 12.9792 21.7861 12.9562 21.774C12.8775 21.7337 12.8467 21.637 12.8871 21.5583L13.5975 20.1823C13.6378 20.1036 13.7344 20.0729 13.8131 20.1132C13.8919 20.1535 13.9226 20.2502 13.8823 20.3289L13.1719 21.7049C13.1431 21.7606 13.0874 21.7919 13.0291 21.7919Z" fill="white"/>
<path d="M18.9875 21.792C18.9293 21.792 18.8736 21.7606 18.8454 21.7056L18.135 20.3296C18.0947 20.2509 18.1254 20.1542 18.2042 20.1139C18.2829 20.0736 18.3789 20.1043 18.4198 20.183L19.1302 21.559C19.1706 21.6378 19.1398 21.7344 19.0611 21.7747C19.0374 21.7862 19.0125 21.792 18.9875 21.792Z" fill="white"/>
<path d="M12.512 15.2116H11.36C11.2717 15.2116 11.2 15.1399 11.2 15.0516V12.7982C11.2 12.7099 11.2717 12.6382 11.36 12.6382H12.512C12.6003 12.6382 12.672 12.7099 12.672 12.7982V15.0516C12.672 15.1399 12.6003 15.2116 12.512 15.2116ZM11.52 14.8916H12.352V12.9582H11.52V14.8916Z" fill="white"/>
<path d="M11.936 16.0001C11.8477 16.0001 11.776 15.9284 11.776 15.8401V15.0516C11.776 14.9633 11.8477 14.8916 11.936 14.8916C12.0243 14.8916 12.096 14.9633 12.096 15.0516V15.8401C12.096 15.9284 12.0243 16.0001 11.936 16.0001Z" fill="white"/>
<path d="M11.936 12.9806C11.8477 12.9806 11.776 12.9089 11.776 12.8206V12.0321C11.776 11.9438 11.8477 11.8721 11.936 11.8721C12.0243 11.8721 12.096 11.9438 12.096 12.0321V12.8206C12.096 12.9089 12.0243 12.9806 11.936 12.9806Z" fill="white"/>
<path d="M15.136 16.5154H13.984C13.8957 16.5154 13.824 16.4437 13.824 16.3554V13.4395C13.824 13.3512 13.8957 13.2795 13.984 13.2795H15.136C15.2244 13.2795 15.296 13.3512 15.296 13.4395V16.3554C15.296 16.4437 15.2244 16.5154 15.136 16.5154ZM14.144 16.1954H14.976V13.5995H14.144V16.1954Z" fill="white"/>
<path d="M14.56 17.5361C14.4717 17.5361 14.4 17.4644 14.4 17.3761V16.3553C14.4 16.267 14.4717 16.1953 14.56 16.1953C14.6483 16.1953 14.72 16.267 14.72 16.3553V17.3761C14.72 17.4644 14.6483 17.5361 14.56 17.5361Z" fill="white"/>
<path d="M14.56 13.6289C14.4717 13.6289 14.4 13.5572 14.4 13.4689V12.4481C14.4 12.3598 14.4717 12.2881 14.56 12.2881C14.6483 12.2881 14.72 12.3598 14.72 12.4481V13.4689C14.72 13.5572 14.6483 13.6289 14.56 13.6289Z" fill="white"/>
<path d="M17.824 15.5554H16.672C16.5837 15.5554 16.512 15.4837 16.512 15.3954V12.4796C16.512 12.3913 16.5837 12.3196 16.672 12.3196H17.824C17.9123 12.3196 17.984 12.3913 17.984 12.4796V15.3954C17.984 15.4837 17.9123 15.5554 17.824 15.5554ZM16.832 15.2354H17.664V12.6396H16.832V15.2354Z" fill="white"/>
<path d="M17.248 16.5762C17.1597 16.5762 17.088 16.5045 17.088 16.4162V15.3954C17.088 15.307 17.1597 15.2354 17.248 15.2354C17.3363 15.2354 17.408 15.307 17.408 15.3954V16.4162C17.408 16.5045 17.3363 16.5762 17.248 16.5762Z" fill="white"/>
<path d="M17.248 12.6689C17.1597 12.6689 17.088 12.5972 17.088 12.5089V11.4881C17.088 11.3998 17.1597 11.3281 17.248 11.3281C17.3363 11.3281 17.408 11.3998 17.408 11.4881V12.5089C17.408 12.5972 17.3363 12.6689 17.248 12.6689Z" fill="white"/>
<path d="M20.576 17.0913H19.424C19.3357 17.0913 19.264 17.0196 19.264 16.9313V14.0155C19.264 13.9271 19.3357 13.8555 19.424 13.8555H20.576C20.6644 13.8555 20.736 13.9271 20.736 14.0155V16.9313C20.736 17.0196 20.6644 17.0913 20.576 17.0913ZM19.584 16.7713H20.416V14.1755H19.584V16.7713Z" fill="white"/>
<path d="M20 18.112C19.9117 18.112 19.84 18.0404 19.84 17.952V16.9312C19.84 16.8429 19.9117 16.7712 20 16.7712C20.0883 16.7712 20.16 16.8429 20.16 16.9312V17.952C20.16 18.0404 20.0883 18.112 20 18.112Z" fill="white"/>
<path d="M20 14.2048C19.9117 14.2048 19.84 14.1331 19.84 14.0448V13.024C19.84 12.9357 19.9117 12.864 20 12.864C20.0883 12.864 20.16 12.9357 20.16 13.024V14.0448C20.16 14.1331 20.0883 14.2048 20 14.2048Z" fill="white"/>
</svg>
