<svg width="32" height="32" viewBox="0 0 32 32" fill="none" xmlns="http://www.w3.org/2000/svg">
<circle cx="16" cy="16" r="16" fill="#2A2F36"/>
<path d="M21.24 19.728H10.392C9.62464 19.728 9 19.1034 9 18.336V11.392C9 10.6246 9.62464 10 10.392 10H21.24C22.0074 10 22.632 10.6246 22.632 11.392V18.336C22.632 19.1034 22.0074 19.728 21.24 19.728ZM10.392 10.32C9.80064 10.32 9.32 10.8006 9.32 11.392V18.336C9.32 18.9274 9.80064 19.408 10.392 19.408H21.24C21.8314 19.408 22.312 18.9274 22.312 18.336V11.392C22.312 10.8006 21.8314 10.32 21.24 10.32H10.392Z" fill="white"/>
<path d="M22.472 17.7824H9.16C9.07168 17.7824 9 17.7107 9 17.6224C9 17.5341 9.07168 17.4624 9.16 17.4624H22.472C22.5603 17.4624 22.632 17.5341 22.632 17.6224C22.632 17.7107 22.5603 17.7824 22.472 17.7824Z" fill="white"/>
<path d="M20.3728 21.1039H11.688C11.5997 21.1039 11.528 21.0323 11.528 20.9439C11.528 20.8556 11.5997 20.7839 11.688 20.7839H20.3728C20.4611 20.7839 20.5328 20.8556 20.5328 20.9439C20.5328 21.0323 20.4611 21.1039 20.3728 21.1039Z" fill="white"/>
<path d="M12.8451 21.1039C12.8202 21.1039 12.7952 21.0982 12.7722 21.086C12.6934 21.0457 12.6627 20.949 12.703 20.8703L13.4134 19.4943C13.4538 19.4156 13.5504 19.3849 13.6291 19.4252C13.7078 19.4655 13.7386 19.5622 13.6982 19.6409L12.9878 21.0169C12.959 21.0726 12.9034 21.1039 12.8451 21.1039Z" fill="white"/>
<path d="M18.8035 21.104C18.7453 21.104 18.6896 21.0727 18.6614 21.0176L17.951 19.6416C17.9107 19.5629 17.9414 19.4663 18.0202 19.4259C18.0989 19.3856 18.1949 19.4163 18.2358 19.4951L18.9462 20.8711C18.9866 20.9498 18.9558 21.0464 18.8771 21.0867C18.8534 21.0983 18.8285 21.104 18.8035 21.104Z" fill="white"/>
<path d="M12.264 15.12C11.2054 15.12 10.344 14.2586 10.344 13.2C10.344 12.1415 11.2054 11.28 12.264 11.28C13.3226 11.28 14.184 12.1415 14.184 13.2C14.184 14.2586 13.3226 15.12 12.264 15.12ZM12.264 11.6C11.3814 11.6 10.664 12.3175 10.664 13.2C10.664 14.0826 11.3814 14.8 12.264 14.8C13.1466 14.8 13.864 14.0826 13.864 13.2C13.864 12.3175 13.1466 11.6 12.264 11.6Z" fill="white"/>
<path d="M11.2022 14.7635C11.1626 14.7635 11.1229 14.7488 11.0922 14.7194C11.0282 14.6586 11.0256 14.5575 11.0864 14.4935L12.104 13.4208V11.44C12.104 11.3517 12.1757 11.28 12.264 11.28C12.3523 11.28 12.424 11.3517 12.424 11.44V13.5482L11.3181 14.7136C11.2867 14.7469 11.2445 14.7635 11.2022 14.7635Z" fill="white"/>
<path d="M14.664 16.8788H10.216C10.1277 16.8788 10.056 16.8072 10.056 16.7188C10.056 16.6305 10.1277 16.5588 10.216 16.5588H14.664C14.7523 16.5588 14.824 16.6305 14.824 16.7188C14.824 16.8072 14.7523 16.8788 14.664 16.8788Z" fill="white"/>
<path d="M21.64 15.8189H15.592V11.504C15.592 11.4157 15.6637 11.344 15.752 11.344C15.8403 11.344 15.912 11.4157 15.912 11.504V15.4989H21.64C21.7283 15.4989 21.8 15.5706 21.8 15.6589C21.8 15.7472 21.7283 15.8189 21.64 15.8189Z" fill="white"/>
<path d="M17.384 15.8189C17.2957 15.8189 17.224 15.7472 17.224 15.6589V14.704H16.52V15.6589C16.52 15.7472 16.4483 15.8189 16.36 15.8189C16.2717 15.8189 16.2 15.7472 16.2 15.6589V14.544C16.2 14.4557 16.2717 14.384 16.36 14.384H17.384C17.4723 14.384 17.544 14.4557 17.544 14.544V15.6589C17.544 15.7472 17.4723 15.8189 17.384 15.8189Z" fill="white"/>
<path d="M19.112 15.8189C19.0237 15.8189 18.952 15.7472 18.952 15.6589V13.84H18.248V15.6589C18.248 15.7472 18.1763 15.8189 18.088 15.8189C17.9997 15.8189 17.928 15.7472 17.928 15.6589V13.68C17.928 13.5917 17.9997 13.52 18.088 13.52H19.112C19.2003 13.52 19.272 13.5917 19.272 13.68V15.6589C19.272 15.7472 19.2003 15.8189 19.112 15.8189Z" fill="white"/>
<path d="M20.84 15.8189C20.7517 15.8189 20.68 15.7472 20.68 15.6589V13.392H19.976V15.6589C19.976 15.7472 19.9043 15.8189 19.816 15.8189C19.7277 15.8189 19.656 15.7472 19.656 15.6589V13.232C19.656 13.1437 19.7277 13.072 19.816 13.072H20.84C20.9283 13.072 21 13.1437 21 13.232V15.6589C21 15.7472 20.9283 15.8189 20.84 15.8189Z" fill="white"/>
<path d="M12.0029 15.9841H10.248C10.1597 15.9841 10.088 15.9124 10.088 15.8241C10.088 15.7357 10.1597 15.6641 10.248 15.6641H12.0029C12.0912 15.6641 12.1629 15.7357 12.1629 15.8241C12.1629 15.9124 12.0912 15.9841 12.0029 15.9841Z" fill="white"/>
</svg>
