<svg width="24" height="24" viewBox="0 0 24 24" fill="none" xmlns="http://www.w3.org/2000/svg">
<path d="M3.52539 3.5H12.3584C12.9387 3.5 13.3848 3.95308 13.3848 4.48535V7.09863H20.4746C21.0548 7.09876 21.5 7.55178 21.5 8.08398V19.5146C21.5 20.0469 21.0548 20.4999 20.4746 20.5H3.52539C2.9452 20.4999 2.5 20.0469 2.5 19.5146V4.48535C2.5 3.95312 2.9452 3.50011 3.52539 3.5ZM2.97949 20.0605H21.0186V7.53809H2.97949V20.0605ZM2.97949 7.09863H12.9023V3.93945H2.97949V7.09863Z" fill="#A7B1BC" stroke="#A7B1BC"/>
<path d="M11.1416 12.1401V16.4614H20.8594V16.9009H11.6875C11.1074 16.9008 10.6623 16.4486 10.6621 15.9165V12.1401H11.1416Z" fill="#A7B1BC" stroke="#A7B1BC"/>
<path d="M17.5579 14.5201V13.0806H14.5943V14.5201H17.5579Z" fill="#A7B1BC"/>
<path d="M21.4739 10.3687L21.263 11.6403H11.6163L11.8272 10.3687H21.4739Z" fill="#A7B1BC"/>
</svg>
