<svg width="14" height="18" viewBox="0 0 14 18" fill="none" xmlns="http://www.w3.org/2000/svg">
<path d="M13.6597 14.0402L12.3997 12.5402V7.08768C12.3997 5.62518 11.8297 4.25268 10.7947 3.21768C10.3147 2.73768 9.76717 2.36268 9.15217 2.08518C9.08467 0.915176 8.10967 -0.00732422 6.92467 -0.00732422C5.73967 -0.00732422 4.76467 0.922676 4.69717 2.08518C3.78967 2.49018 3.01717 3.12768 2.43967 3.94518C1.79467 4.86768 1.44967 5.95518 1.44967 7.08017V12.5327L0.189668 14.0327C-0.0128322 14.2727 -0.0578322 14.6027 0.0771678 14.8877C0.212168 15.1727 0.489668 15.3527 0.804668 15.3527H3.70717C3.99967 16.8677 5.34967 18.0077 6.92467 18.0077C8.49967 18.0077 9.84967 16.8677 10.1422 15.3527H13.0447C13.3597 15.3527 13.6372 15.1727 13.7722 14.8877C13.9072 14.6027 13.8622 14.2727 13.6597 14.0327V14.0402ZM6.92467 0.840176C7.53217 0.840176 8.04217 1.23018 8.23717 1.77018C7.80967 1.66518 7.37467 1.61268 6.92467 1.61268C6.47467 1.61268 6.03967 1.66518 5.61217 1.77018C5.79967 1.23018 6.31717 0.840176 6.92467 0.840176ZM4.57717 14.5127V15.3602H9.27967C9.00217 16.4027 8.04217 17.1677 6.93217 17.1677C5.82217 17.1677 4.86217 16.4027 4.58467 15.3602H3.73717V14.5127H0.917168L2.31217 12.8552V7.08768C2.31217 5.18268 3.50467 3.44268 5.28967 2.76768C5.81467 2.56518 6.36967 2.46768 6.93967 2.46768C7.50967 2.46768 8.06467 2.57268 8.58967 2.76768C9.19717 3.00018 9.74467 3.35268 10.2097 3.81768C11.0872 4.69518 11.5672 5.85768 11.5672 7.08768V12.8552L12.9622 14.5127H4.59217H4.57717Z" fill="white"/>
</svg>
