<svg width="20" height="20" viewBox="0 0 20 20" fill="none" xmlns="http://www.w3.org/2000/svg">
<mask id="path-1-inside-1_760_15696" fill="white">
<path d="M10.5982 0.0184025C10.5669 0.0157956 10.5356 0.0157905 10.507 0.0131836C10.5278 0.0131836 10.5487 0.015793 10.5695 0.015793C10.5773 0.015793 10.5878 0.0157956 10.5982 0.0184025Z"/>
</mask>
<path d="M10.5982 0.0184025C10.5669 0.0157956 10.5356 0.0157905 10.507 0.0131836C10.5278 0.0131836 10.5487 0.015793 10.5695 0.015793C10.5773 0.015793 10.5878 0.0157956 10.5982 0.0184025Z" fill="#A7B1BC"/>
<path d="M10.5982 0.0184025L10.5151 1.01495L10.8407 -0.951733L10.5982 0.0184025ZM10.507 0.0131836V-0.986816L10.4164 1.00908L10.507 0.0131836ZM10.5982 0.0184025L10.6812 -0.978142C10.66 -0.979912 10.6414 -0.981028 10.6271 -0.981775C10.6135 -0.982487 10.6006 -0.983025 10.5942 -0.983299C10.5903 -0.983464 10.588 -0.983566 10.586 -0.983657C10.5841 -0.983744 10.5834 -0.98378 10.5835 -0.983774C10.5837 -0.983767 10.585 -0.983693 10.5873 -0.983538C10.5895 -0.983382 10.593 -0.983118 10.5975 -0.982709L10.507 0.0131836L10.4164 1.00908C10.4394 1.01117 10.4595 1.01243 10.4743 1.01324C10.4886 1.01402 10.502 1.01459 10.509 1.01488C10.5284 1.01571 10.5233 1.01563 10.5151 1.01495L10.5982 0.0184025ZM10.507 0.0131836V1.01318C10.4917 1.01318 10.4805 1.01271 10.4757 1.01249C10.4718 1.01231 10.4693 1.01213 10.4758 1.01254C10.4797 1.01278 10.4927 1.01361 10.507 1.01429C10.5222 1.015 10.5439 1.01579 10.5695 1.01579V0.015793V-0.984207C10.5847 -0.984207 10.596 -0.983738 10.6008 -0.983515C10.6046 -0.983333 10.6072 -0.983152 10.6007 -0.98356C10.5968 -0.983804 10.5838 -0.984638 10.5695 -0.985309C10.5543 -0.986021 10.5326 -0.986816 10.507 -0.986816V0.0131836ZM10.5695 0.015793V1.01579C10.5758 1.01579 10.549 1.01609 10.5162 1.0139C10.4817 1.01159 10.4247 1.0058 10.3556 0.988538L10.5982 0.0184025L10.8407 -0.951733C10.7613 -0.971607 10.6938 -0.978694 10.6495 -0.981655C10.6069 -0.984502 10.571 -0.984207 10.5695 -0.984207V0.015793Z" fill="#A7B1BC" mask="url(#path-1-inside-1_760_15696)"/>
<mask id="path-3-inside-2_760_15696" fill="white">
<path d="M10.5982 0.0184025C10.5669 0.0157956 10.5356 0.0157905 10.507 0.0131836C10.5278 0.0131836 10.5487 0.015793 10.5695 0.015793C10.5773 0.015793 10.5878 0.0157956 10.5982 0.0184025Z"/>
</mask>
<path d="M10.5982 0.0184025C10.5669 0.0157956 10.5356 0.0157905 10.507 0.0131836C10.5278 0.0131836 10.5487 0.015793 10.5695 0.015793C10.5773 0.015793 10.5878 0.0157956 10.5982 0.0184025Z" fill="#A7B1BC"/>
<path d="M10.5982 0.0184025L10.5151 1.01495L10.8407 -0.951733L10.5982 0.0184025ZM10.507 0.0131836V-0.986816L10.4164 1.00908L10.507 0.0131836ZM10.5982 0.0184025L10.6812 -0.978142C10.66 -0.979912 10.6414 -0.981028 10.6271 -0.981775C10.6135 -0.982487 10.6006 -0.983025 10.5942 -0.983299C10.5903 -0.983464 10.588 -0.983566 10.586 -0.983657C10.5841 -0.983744 10.5834 -0.98378 10.5835 -0.983774C10.5837 -0.983767 10.585 -0.983693 10.5873 -0.983538C10.5895 -0.983382 10.593 -0.983118 10.5975 -0.982709L10.507 0.0131836L10.4164 1.00908C10.4394 1.01117 10.4595 1.01243 10.4743 1.01324C10.4886 1.01402 10.502 1.01459 10.509 1.01488C10.5284 1.01571 10.5233 1.01563 10.5151 1.01495L10.5982 0.0184025ZM10.507 0.0131836V1.01318C10.4917 1.01318 10.4805 1.01271 10.4757 1.01249C10.4718 1.01231 10.4693 1.01213 10.4758 1.01254C10.4797 1.01278 10.4927 1.01361 10.507 1.01429C10.5222 1.015 10.5439 1.01579 10.5695 1.01579V0.015793V-0.984207C10.5847 -0.984207 10.596 -0.983738 10.6008 -0.983515C10.6046 -0.983333 10.6072 -0.983152 10.6007 -0.98356C10.5968 -0.983804 10.5838 -0.984638 10.5695 -0.985309C10.5543 -0.986021 10.5326 -0.986816 10.507 -0.986816V0.0131836ZM10.5695 0.015793V1.01579C10.5758 1.01579 10.549 1.01609 10.5162 1.0139C10.4817 1.01159 10.4247 1.0058 10.3556 0.988538L10.5982 0.0184025L10.8407 -0.951733C10.7613 -0.971607 10.6938 -0.978694 10.6495 -0.981655C10.6069 -0.984502 10.571 -0.984207 10.5695 -0.984207V0.015793Z" fill="#A7B1BC" mask="url(#path-3-inside-2_760_15696)"/>
<path d="M9.99857 5.5293C8.09579 5.5293 6.5553 7.06997 6.5553 8.973C6.5553 10.8682 8.09579 12.4089 9.99857 12.4089C11.9014 12.4089 13.4418 10.8682 13.4418 8.973C13.4418 7.06997 11.9014 5.5293 9.99857 5.5293ZM9.99857 11.0298C8.86212 11.0298 7.93417 10.107 7.93417 8.97039C7.93417 7.82857 8.86472 6.90574 9.99857 6.90574C11.1324 6.90574 12.0629 7.82857 12.0629 8.97039C12.0655 10.107 11.135 11.0298 9.99857 11.0298Z" fill="#A7B1BC"/>
<path d="M16.4576 15.7064C16.1527 16.0531 15.819 16.3737 15.4646 16.6657C14.7608 16.1469 13.9032 15.8497 12.9675 15.8497H7.03498C6.09922 15.8497 5.23904 16.1469 4.53788 16.6657C4.18339 16.3737 3.84977 16.0557 3.5448 15.7064C4.51704 14.9321 5.74471 14.4707 7.07927 14.4707H12.9284C14.2577 14.4733 15.4854 14.9347 16.4576 15.7064Z" fill="#A7B1BC"/>
<path d="M3.29712 15.4173C3.37271 15.5163 3.45613 15.6154 3.53954 15.7093L3.54215 15.7066C3.45614 15.6128 3.37532 15.5163 3.29712 15.4173ZM16.4602 15.7066L16.4628 15.7093C16.7991 15.3339 17.104 14.922 17.3673 14.4814C17.1014 14.9168 16.7938 15.3286 16.4602 15.7066ZM18.8296 14.6952C18.9808 14.4162 19.1163 14.1321 19.2336 13.8375C19.1111 14.1321 18.9755 14.4188 18.8296 14.6952ZM19.4577 13.2484C19.5281 13.0528 19.5881 12.8521 19.6428 12.6514C19.5881 12.8521 19.5255 13.0502 19.4577 13.2484ZM19.231 13.8375C19.3144 13.6446 19.39 13.4465 19.4551 13.2484C19.39 13.4465 19.3144 13.642 19.231 13.8375ZM3.29712 15.4173C3.37271 15.5163 3.45613 15.6154 3.53954 15.7093L3.54215 15.7066C3.45614 15.6128 3.37532 15.5163 3.29712 15.4173ZM4.53523 16.666C4.53523 16.666 4.53262 16.666 4.53262 16.6686C4.81152 16.898 5.10607 17.1118 5.41625 17.3021C5.10867 17.1091 4.81413 16.8954 4.53523 16.666ZM15.4619 16.666C15.3681 16.7416 15.2742 16.8172 15.1778 16.8902C15.2768 16.8198 15.3707 16.7442 15.4645 16.6686C15.4645 16.666 15.4619 16.666 15.4619 16.666Z" fill="#A7B1BC"/>
<path d="M1.43091 10.9619C1.50129 11.5954 1.63942 12.208 1.84012 12.792C1.84273 12.7894 1.84273 12.7894 1.84534 12.7894C1.64203 12.2002 1.5065 11.5876 1.43091 10.9619ZM3.49528 2.40355C3.51874 2.38269 3.54481 2.36184 3.56827 2.34359C3.61258 2.30449 3.6595 2.26539 3.70642 2.22889C3.69078 2.23932 3.67513 2.24975 3.6621 2.26278C3.60476 2.3071 3.55001 2.35402 3.49528 2.40355ZM3.07041 2.78677C3.14339 2.71638 3.21898 2.64598 3.29718 2.5782C3.36234 2.51824 3.42751 2.4609 3.49528 2.40355C3.45357 2.43483 3.41187 2.47133 3.37278 2.50783C3.27112 2.59907 3.16946 2.69031 3.07041 2.78677ZM4.01659 1.98906C4.25639 1.81179 4.50143 1.64233 4.75426 1.48592C4.49882 1.63972 4.25378 1.80658 4.01659 1.98906ZM6.78474 2.00209C7.06625 1.89 7.35298 1.79093 7.64492 1.7049C7.35038 1.78832 7.06625 1.88739 6.78474 2.00209ZM8.75792 1.46768C8.96384 1.43901 9.17237 1.41554 9.3835 1.3999C9.16976 1.41294 8.96384 1.4364 8.75792 1.46768ZM15.1857 1.44943C16.2153 2.07509 17.1249 2.88322 17.8652 3.82691C17.1406 2.89365 16.2387 2.08291 15.1857 1.44943ZM14.2916 19.0303V19.0329C14.4193 18.9729 14.5444 18.9103 14.667 18.8426C14.5444 18.9077 14.4193 18.9703 14.2916 19.0303ZM13.7703 17.7477C13.7703 17.7503 13.7729 17.7503 13.7729 17.7529C13.8876 17.6955 14.0023 17.6382 14.1118 17.5756C13.9971 17.6356 13.8876 17.6929 13.7703 17.7477ZM17.9981 6.78572C18.1102 7.06726 18.2093 7.35401 18.2953 7.64598C18.2119 7.35141 18.1128 7.06465 17.9981 6.78572ZM18.0112 4.01721C18.2041 4.27529 18.3839 4.54119 18.5507 4.81491C18.3839 4.54119 18.2067 4.27529 18.0112 4.01721ZM18.5325 8.75652C18.5612 8.96246 18.5846 9.17102 18.6003 9.38218C18.5846 9.17102 18.5638 8.96246 18.5325 8.75652ZM19.9974 9.77582C20 9.90877 19.9974 10.0417 19.9948 10.1747C19.9974 10.1173 20 10.06 20 10C19.9974 9.92441 19.9974 9.85142 19.9974 9.77582ZM2.39793 14.0563H2.39532C2.45006 14.1632 2.51002 14.2701 2.57258 14.3718C2.51263 14.2675 2.45267 14.1632 2.39793 14.0563ZM5.68218 19.0172L5.67957 19.0198C5.68739 19.0224 5.69262 19.025 5.69783 19.0276C5.69522 19.025 5.68739 19.0198 5.68218 19.0172ZM12.4879 18.2508C11.99 18.402 11.4791 18.5089 10.9604 18.5688C11.487 18.5115 11.9978 18.4072 12.4905 18.2586C12.4879 18.256 12.4879 18.2534 12.4879 18.2508Z" fill="#A7B1BC"/>
<path d="M19.9975 9.72106C19.9975 9.73931 20.0001 9.75756 19.9975 9.77581C20.0001 9.90876 19.9975 10.0417 19.9948 10.1747C19.9948 10.2685 19.9922 10.3597 19.9896 10.451C19.987 10.4953 19.9844 10.5396 19.9818 10.5865C19.9818 10.6309 19.9766 10.6752 19.974 10.7195C19.9688 10.7977 19.9636 10.8759 19.9557 10.9541V10.9672C19.9427 11.0897 19.9271 11.2122 19.9114 11.3347C19.9088 11.3712 19.9036 11.4103 19.8958 11.4494C19.8723 11.6084 19.8463 11.7701 19.8124 11.9291C19.7811 12.0907 19.7472 12.2497 19.7055 12.4114C19.6873 12.4896 19.6664 12.5704 19.643 12.6512C19.5882 12.8519 19.5257 13.0501 19.4579 13.2482C19.3901 13.4463 19.3145 13.6418 19.2337 13.8373C19.1112 14.1319 18.9757 14.4187 18.8297 14.695C18.8271 14.7002 18.8245 14.7028 18.8245 14.7054C18.7567 14.8332 18.6863 14.9583 18.6134 15.0808C18.6029 15.1017 18.5925 15.1199 18.5795 15.1382C18.5247 15.232 18.4674 15.3233 18.4075 15.4145C18.3736 15.4692 18.3371 15.524 18.3006 15.5761C18.2667 15.6309 18.2276 15.6856 18.1885 15.7404C18.1364 15.816 18.0816 15.8916 18.0269 15.9645C18.006 15.9984 17.98 16.0323 17.9513 16.0636C17.8783 16.1627 17.8027 16.2591 17.7245 16.353C17.6307 16.4677 17.5317 16.5798 17.4326 16.6919C17.1485 16.3243 16.8227 15.9932 16.463 15.7091C16.7992 15.3337 17.1042 14.9218 17.3675 14.4812C17.4378 14.3717 17.5004 14.2622 17.5577 14.1502C17.6151 14.0537 17.6672 13.9546 17.7141 13.8556C17.7271 13.8321 17.7376 13.8113 17.748 13.7878C17.8001 13.6835 17.8496 13.5793 17.8939 13.4724C17.8992 13.4645 17.9018 13.4567 17.9044 13.4463C17.9252 13.402 17.9461 13.3577 17.9643 13.3107C17.9904 13.2508 18.0139 13.1908 18.0347 13.1309C18.0712 13.0422 18.1051 12.951 18.1364 12.8597C18.1546 12.8076 18.1729 12.7555 18.1911 12.7007C18.238 12.5626 18.2771 12.427 18.3162 12.2888C18.3397 12.2028 18.3631 12.1168 18.384 12.0308C18.4179 11.8848 18.4492 11.7388 18.4752 11.5928C18.4987 11.4807 18.5169 11.3686 18.5326 11.2565C18.5404 11.2174 18.5456 11.1783 18.5482 11.1418C18.5638 11.0401 18.5743 10.9411 18.5847 10.8394C18.5873 10.8186 18.5899 10.7951 18.5899 10.7716C18.6003 10.6569 18.6081 10.5422 18.6134 10.4275V10.4093C18.6212 10.2763 18.6238 10.1434 18.6238 10.013C18.6238 9.90354 18.6212 9.79405 18.6186 9.68717C18.6134 9.5855 18.6082 9.48384 18.6003 9.38217C18.5873 9.17101 18.5639 8.96245 18.5326 8.75651C18.5143 8.62356 18.4909 8.49321 18.4674 8.36287C18.4205 8.12304 18.3631 7.88581 18.2954 7.6512C18.298 7.64859 18.298 7.64858 18.2954 7.64598C18.212 7.3514 18.1129 7.06464 17.9982 6.78571C17.9617 6.69186 17.9226 6.59801 17.8809 6.50677C17.8809 6.50416 17.8809 6.50156 17.8783 6.49896C17.7741 6.26173 17.6568 6.03232 17.5317 5.80813C17.4847 5.71689 17.43 5.62565 17.3752 5.53702C17.3752 5.53441 17.3726 5.53441 17.3726 5.5318C17.3257 5.45098 17.2762 5.37279 17.2215 5.29458C17.0494 5.02346 16.8592 4.76277 16.6507 4.51251C16.4656 4.28832 16.2675 4.06933 16.059 3.866C15.8504 3.65745 15.6315 3.46193 15.4021 3.27945C15.0763 3.01355 14.7244 2.77111 14.3517 2.55474C14.2135 2.47132 14.0701 2.39572 13.9242 2.32012C13.8616 2.28883 13.7991 2.25756 13.7365 2.22888C13.674 2.19499 13.6114 2.16631 13.5462 2.14024C13.468 2.10374 13.3898 2.06986 13.3116 2.03597C12.7252 1.79353 12.1283 1.61887 11.5262 1.51199C11.4636 1.49895 11.4011 1.48853 11.3385 1.48071C11.2577 1.46507 11.1769 1.45464 11.0987 1.44682C11.0257 1.43639 10.9553 1.42856 10.8824 1.42074C10.8094 1.41292 10.7364 1.40772 10.6634 1.4025C10.335 1.37644 10.0091 1.36861 9.68853 1.38164C9.58688 1.38686 9.48524 1.39207 9.38358 1.39989C9.17245 1.41293 8.96392 1.43639 8.75801 1.46768C8.62507 1.48592 8.49474 1.50939 8.36441 1.53285C8.12461 1.57977 7.88742 1.63712 7.65283 1.7049C7.65022 1.70229 7.65022 1.70229 7.64761 1.7049C7.35307 1.78832 7.06634 1.88738 6.78744 2.00208C6.6936 2.03858 6.59978 2.07769 6.50855 2.1194C6.50594 2.1194 6.50333 2.11938 6.50072 2.12199C6.26353 2.22627 6.03414 2.34358 5.80998 2.46871C5.71875 2.51563 5.62754 2.57039 5.53892 2.62513C5.53631 2.62513 5.53631 2.62773 5.5337 2.62773C5.4529 2.67465 5.37469 2.72419 5.2965 2.77893C5.02542 2.95098 4.76476 3.14129 4.51453 3.34984C4.29037 3.53493 4.07142 3.73306 3.86811 3.94161C3.65959 4.15016 3.4641 4.36912 3.28164 4.59853C3.01577 4.92439 2.77335 5.27633 2.55701 5.64911C2.4736 5.78728 2.398 5.93066 2.32241 6.07664C2.29114 6.13921 2.25986 6.20177 2.23119 6.26433C2.19731 6.3269 2.16864 6.38947 2.14258 6.45465C2.10609 6.53285 2.07219 6.61105 2.03831 6.68925C1.7959 7.2758 1.62126 7.87279 1.51439 8.47498C1.50136 8.53754 1.49093 8.6001 1.48311 8.66267C1.46747 8.74348 1.45705 8.82429 1.44923 8.9025C1.4388 8.97549 1.43099 9.04588 1.42317 9.11887C1.41535 9.19186 1.41012 9.26486 1.4049 9.33786C1.37623 9.68457 1.37103 10.0313 1.38928 10.3728C1.39449 10.4797 1.39969 10.5839 1.40751 10.6882C1.41533 10.7795 1.42318 10.8707 1.4336 10.9619C1.50398 11.5954 1.64211 12.208 1.84282 12.792C1.99139 13.2325 2.17646 13.6548 2.39541 14.0563C2.45014 14.1632 2.51011 14.2701 2.57266 14.3717C2.62219 14.4578 2.67431 14.5438 2.72905 14.6272C2.75251 14.6637 2.77597 14.6976 2.79943 14.7341C2.83071 14.7862 2.8646 14.8384 2.90109 14.8879C2.9454 14.9531 2.98969 15.0182 3.03922 15.0808C3.05225 15.0991 3.06529 15.1173 3.07832 15.1356C3.1487 15.232 3.21907 15.3259 3.29726 15.4171C3.37285 15.5162 3.45628 15.6152 3.53969 15.7091C3.84205 16.0532 4.17567 16.3738 4.53276 16.6684C4.81167 16.8978 5.10621 17.1116 5.41639 17.3019C5.51544 17.3671 5.6171 17.427 5.71876 17.4844C5.73179 17.4948 5.74483 17.5026 5.76047 17.5078C5.8517 17.5626 5.94553 17.6121 6.04197 17.6616C6.04979 17.6668 6.06021 17.6721 6.07064 17.6773C6.16969 17.7268 6.27135 17.7763 6.37301 17.8233C6.47727 17.8728 6.58413 17.9197 6.691 17.964C6.77441 17.9979 6.86042 18.0318 6.94643 18.0657C6.99596 18.0839 7.0455 18.1048 7.09763 18.1204C7.1654 18.1465 7.23576 18.17 7.30614 18.1934C7.36348 18.2117 7.42084 18.2299 7.48079 18.2482C7.59548 18.2847 7.70757 18.316 7.81965 18.3446C7.88482 18.3629 7.95259 18.3785 8.01775 18.3942C8.05164 18.402 8.08811 18.4098 8.12199 18.4176C8.24189 18.4463 8.3618 18.4698 8.4817 18.4906C8.56771 18.5063 8.65634 18.5193 8.74496 18.5323C8.78406 18.5401 8.82576 18.5454 8.86746 18.5506C8.98736 18.5662 9.10988 18.5793 9.23238 18.5897C9.37835 18.6053 9.52433 18.6131 9.6703 18.6157C9.77456 18.621 9.88142 18.6236 9.98568 18.6236C10.1004 18.6236 10.2151 18.6236 10.3272 18.6157C10.4184 18.6131 10.507 18.6105 10.593 18.6027C10.6086 18.6027 10.6243 18.6001 10.6373 18.6001C10.7312 18.5949 10.825 18.5845 10.9162 18.574C10.9319 18.5714 10.9449 18.5714 10.9605 18.5688C11.4871 18.5115 11.9979 18.4072 12.4906 18.2586C12.9363 18.1257 13.3664 17.9562 13.7756 17.7529C13.8903 17.6955 14.005 17.6382 14.1145 17.5756C14.2239 17.513 14.336 17.4505 14.4455 17.3853C14.5263 17.3384 14.6071 17.2888 14.6853 17.2341C14.7505 17.195 14.813 17.1533 14.8756 17.109C14.8834 17.1038 14.8912 17.0985 14.899 17.0907C14.9955 17.0282 15.0893 16.9604 15.1806 16.89C15.2796 16.8196 15.3734 16.744 15.4673 16.6684C15.8452 16.9291 16.1762 17.2602 16.4369 17.6434C16.3483 17.719 16.257 17.792 16.1658 17.8624C16.1189 17.9015 16.072 17.938 16.0225 17.9719C15.9443 18.0344 15.8661 18.0918 15.7879 18.1465C15.7566 18.17 15.7279 18.1908 15.6966 18.2117C15.6497 18.2456 15.6028 18.2768 15.5559 18.3055C15.4985 18.3472 15.4412 18.3863 15.3838 18.4202C15.3239 18.4593 15.2613 18.4984 15.1988 18.5375C15.1023 18.5975 15.0033 18.6575 14.9042 18.7122C14.826 18.7591 14.7478 18.8008 14.6696 18.8425C14.5471 18.9077 14.422 18.9703 14.2943 19.0302C13.468 19.4265 12.5766 19.7106 11.6434 19.8618C11.633 19.8644 11.62 19.8644 11.6096 19.867C11.5366 19.8775 11.4662 19.8905 11.3958 19.8983C11.3098 19.9114 11.2264 19.9218 11.1404 19.9322C11.0153 19.9479 10.8875 19.9609 10.7572 19.9687C10.6347 19.9791 10.5122 19.987 10.3897 19.9922C10.2542 19.9974 10.1186 20 9.98568 20C9.83711 20 9.69115 19.9974 9.54258 19.9896C9.3914 19.9818 9.24023 19.9713 9.09165 19.9583C8.94829 19.9453 8.80754 19.9296 8.66678 19.9114C8.65114 19.9114 8.6381 19.9088 8.62768 19.9062C8.49214 19.8879 8.35919 19.8671 8.22365 19.841C8.20801 19.841 8.19239 19.8358 8.17675 19.8332C8.04121 19.8097 7.90566 19.781 7.77272 19.7497H7.76489C7.64499 19.7211 7.52509 19.6924 7.40519 19.6585C7.30614 19.6324 7.20709 19.6037 7.10804 19.5725C6.94904 19.5255 6.79005 19.4734 6.63366 19.4161C6.55807 19.39 6.48248 19.3613 6.40689 19.3326C6.32609 19.3014 6.24266 19.2675 6.16186 19.2336C6.10973 19.2127 6.0576 19.1893 6.00547 19.1658C5.90903 19.1241 5.81259 19.0824 5.71876 19.0354C5.71094 19.0328 5.70574 19.0302 5.70053 19.0276C5.69531 19.025 5.69008 19.0198 5.68487 19.0172L5.68226 19.0198C4.46761 18.4411 3.4224 17.6408 2.57006 16.6919C2.49447 16.6084 2.42146 16.525 2.35108 16.439C2.30416 16.3843 2.25988 16.3295 2.21557 16.2748C2.12434 16.1627 2.03832 16.048 1.9523 15.9333C1.89496 15.8551 1.83761 15.7742 1.78026 15.6934C1.74377 15.6413 1.70727 15.5865 1.67078 15.5318C1.62647 15.464 1.58215 15.3962 1.53784 15.3259C1.49353 15.2581 1.45183 15.1877 1.41012 15.1173C1.2433 14.8358 1.08951 14.5464 0.948757 14.2466C0.914872 14.171 0.878408 14.098 0.847129 14.0224C0.813244 13.9468 0.781967 13.8712 0.750688 13.7956C0.688131 13.6418 0.628166 13.488 0.573429 13.329H0.570819C0.560393 13.3029 0.55258 13.2742 0.54476 13.2456C0.510875 13.1517 0.4796 13.0579 0.450928 12.9614C0.424863 12.8832 0.404005 12.805 0.380546 12.7242C0.357087 12.646 0.336235 12.5652 0.315383 12.487C0.297137 12.414 0.278904 12.3436 0.263264 12.2706C0.252838 12.2211 0.242381 12.1741 0.231955 12.1272C0.221529 12.0803 0.211104 12.0334 0.200678 11.9838C0.179825 11.8874 0.158981 11.7883 0.143341 11.6919C0.119882 11.5511 0.0990324 11.4103 0.0807865 11.2696C0.0625407 11.1288 0.0494965 10.988 0.0364637 10.8472C0.0130048 10.5657 2.75344e-09 10.2842 2.75344e-09 10C2.75344e-09 9.90094 -2.67243e-05 9.80187 0.00518638 9.7002C0.00779293 9.62721 0.0104071 9.55682 0.0130137 9.48643C0.0364726 9.01459 0.0938282 8.54014 0.187664 8.06829C0.203303 7.98748 0.221534 7.90928 0.237173 7.82846C0.255419 7.74765 0.273689 7.66684 0.294542 7.58863C0.315394 7.50782 0.336244 7.42701 0.357096 7.3488C0.404014 7.17936 0.456136 7.00991 0.510874 6.84307C0.586464 6.61627 0.672475 6.38686 0.766311 6.16007C0.771524 6.14964 0.776752 6.1366 0.781965 6.12617C0.826277 6.01669 0.873173 5.90981 0.922698 5.80292C0.969615 5.70386 1.01655 5.6048 1.06607 5.50574C1.23028 5.17988 1.41012 4.86705 1.60561 4.56465C1.6395 4.51252 1.67339 4.46037 1.70727 4.41084C1.7985 4.27789 1.88975 4.14494 1.98619 4.0172C2.03572 3.95463 2.08262 3.88947 2.13214 3.8269C2.26768 3.65485 2.41104 3.4854 2.55701 3.32117C2.62999 3.24035 2.70558 3.15954 2.78117 3.07873C2.87501 2.97967 2.97405 2.88321 3.0731 2.78676C3.14609 2.71637 3.22167 2.64597 3.29987 2.5782C3.36503 2.51824 3.4302 2.46089 3.49797 2.40354C3.52143 2.38268 3.5475 2.36183 3.57096 2.34359C3.61527 2.30448 3.6622 2.26538 3.70912 2.22888C3.81077 2.14807 3.91241 2.06726 4.01667 1.98905C4.25648 1.81178 4.50151 1.64232 4.75435 1.48591C4.83776 1.43377 4.92377 1.38425 5.00978 1.33472C5.05149 1.30865 5.09319 1.28518 5.1375 1.26172C5.18442 1.23305 5.23393 1.20698 5.28345 1.18091C5.28345 1.18091 5.28346 1.18091 5.28606 1.18091C5.40857 1.11313 5.53631 1.05057 5.66403 0.988003C5.72659 0.95672 5.78914 0.928038 5.8543 0.899362C5.95335 0.855045 6.05241 0.810728 6.15406 0.769018C6.24008 0.732521 6.3261 0.696032 6.41472 0.662143C6.49031 0.633467 6.57112 0.604787 6.64931 0.576111C6.69623 0.557863 6.74574 0.542221 6.79266 0.52658C6.87085 0.500511 6.94906 0.474448 7.02725 0.450986C7.0872 0.430131 7.14975 0.411877 7.2097 0.396235C7.30614 0.36756 7.40258 0.341491 7.50163 0.315423C7.60329 0.289354 7.70756 0.263291 7.81183 0.239829C7.8822 0.224187 7.95257 0.208551 8.02555 0.195516C8.17673 0.164234 8.3253 0.138165 8.47648 0.114703C8.71628 0.0782071 8.9587 0.0495295 9.20372 0.0312813C9.33926 0.0208538 9.47739 0.0130261 9.61554 0.00781238C9.74326 0.00259861 9.87101 0 10.0013 0C10.0665 0 10.1317 2.54584e-06 10.1942 0.00260943H10.2177C10.2907 0.00521631 10.361 0.00520804 10.434 0.0104218C10.4575 0.0104218 10.4809 0.0130312 10.507 0.0130312C10.5357 0.0156381 10.5669 0.0156432 10.5982 0.0182501C10.6086 0.0182501 10.6191 0.0182367 10.6295 0.0208436C10.7051 0.0234505 10.7833 0.0312705 10.8589 0.0364843C10.9214 0.041698 10.9814 0.0469137 11.044 0.0547344C11.0831 0.0573412 11.1195 0.0625677 11.1586 0.0677815C11.1769 0.0677815 11.1977 0.0703776 11.216 0.0729844C11.2629 0.0781982 11.3098 0.0834139 11.3567 0.0912345C11.3672 0.0938414 11.3802 0.0938465 11.3906 0.0964534C11.461 0.106881 11.5288 0.117307 11.5992 0.127735C11.6669 0.138162 11.7321 0.148591 11.7973 0.161625C11.951 0.187694 12.1048 0.218973 12.2586 0.255469C12.3394 0.273718 12.4202 0.294568 12.4984 0.315423C12.5792 0.336278 12.66 0.357133 12.7382 0.380595C13.1083 0.48487 13.4759 0.612616 13.8382 0.763815C14.0076 0.834201 14.1718 0.90719 14.336 0.988003C14.482 1.05839 14.6253 1.13139 14.7661 1.20699C14.8365 1.24609 14.9069 1.28518 14.9772 1.32689C15.0476 1.36339 15.118 1.40511 15.1858 1.44943C16.2154 2.07508 17.125 2.88321 17.8653 3.8269C17.9148 3.88947 17.9643 3.95463 18.0113 4.0172C18.2041 4.27528 18.384 4.54118 18.5508 4.81491C18.5769 4.85922 18.6029 4.90093 18.6264 4.94525C18.6655 5.00781 18.702 5.07037 18.7359 5.13555C18.7958 5.23722 18.8506 5.3441 18.9053 5.44838C18.9652 5.56569 19.0226 5.6856 19.0773 5.80552C19.1243 5.90458 19.1686 6.00626 19.2129 6.10792V6.11053C19.2598 6.22263 19.3041 6.33472 19.3484 6.44682C19.3901 6.55631 19.4292 6.66841 19.4683 6.7779C19.5074 6.89521 19.5439 7.01251 19.5804 7.13243C19.6508 7.36444 19.7107 7.59645 19.7629 7.83368C19.7889 7.94838 19.8124 8.06309 19.8332 8.17779C19.8671 8.36288 19.8958 8.54796 19.9192 8.73826C19.9323 8.81647 19.9401 8.89729 19.9479 8.97811C19.9583 9.06153 19.9662 9.14494 19.9714 9.23097C19.9766 9.31439 19.9818 9.40041 19.987 9.48643C19.9922 9.56464 19.9922 9.64285 19.9975 9.72106Z" fill="#A7B1BC"/>
</svg>
