<svg width="14" height="20" viewBox="0 0 14 20" fill="none" xmlns="http://www.w3.org/2000/svg">
<path d="M10.2225 17.5093L6.98812 19.5151L4.17447 17.5621V15.0136L5.49933 15.9269C6.40766 16.5539 7.59813 16.5632 8.51631 15.9505L10.2225 14.813V17.5093Z" fill="white"/>
<path d="M13.3837 12.6987V15.2772L11.3222 16.9231V14.1661L13.3837 12.6987Z" fill="white"/>
<path d="M13.3837 12.2551V12.6985L11.3222 14.1659V13.6982V13.6975L12.8954 12.6814C13.0797 12.5622 13.243 12.4179 13.3823 12.2544L13.3837 12.2551Z" fill="black"/>
<path d="M10.2225 14.4087V14.8129L8.51631 15.9504C7.59813 16.563 6.40766 16.5537 5.49933 15.9268L4.17447 15.0135V14.6158L5.86941 15.6912C6.59974 16.1546 7.52707 16.1503 8.25317 15.6812L10.2225 14.4087Z" fill="black"/>
<path d="M3.21249 14.0062L3.21178 14.0076V14.4089L1.14957 13.0393V12.6987L1.15027 12.698L3.21249 14.0062Z" fill="black"/>
<path d="M3.21178 14.4089V16.9231L1.14957 15.2772V13.0393L3.21178 14.4089Z" fill="white"/>
<path d="M7.77748 13.8659L7.60228 13.9802C7.2336 14.2208 6.7622 14.228 6.38789 13.9973L2.20646 11.4295C1.86311 11.2182 1.65344 10.8404 1.65344 10.4327V5.4214C1.65344 5.00795 1.86874 4.62593 2.21913 4.41742L6.4097 1.91748C6.77346 1.70112 7.22516 1.70398 7.5861 1.92605L7.62409 1.94961C7.42498 1.9539 7.22657 2.00531 7.04785 2.10314L2.68068 4.50525C2.31482 4.7059 2.09037 5.07293 2.09037 5.46995V10.2863C2.09037 10.6783 2.30919 11.0411 2.66731 11.2439L7.02464 13.7124C7.25471 13.8424 7.51996 13.8938 7.77748 13.8659Z" fill="black"/>
<path d="M12.184 5.41078V10.3535C12.184 10.7498 11.9856 11.119 11.6578 11.3332L7.77747 13.866C7.51995 13.8939 7.2547 13.8424 7.02463 13.7125L2.6673 11.244C2.30918 11.0412 2.09036 10.6784 2.09036 10.2864V5.47004C2.09036 5.07302 2.31481 4.706 2.68067 4.50534L7.04785 2.10323C7.22656 2.0054 7.42497 1.95399 7.62408 1.94971H7.62479L11.6317 4.41466C11.9744 4.62602 12.184 5.00376 12.184 5.41078Z" fill="white"/>
<mask id="mask0_2203_463" style="mask-type:luminance" maskUnits="userSpaceOnUse" x="2" y="1" width="11" height="13">
<path d="M12.2544 5.41078V10.3535C12.2544 10.7498 12.056 11.119 11.7281 11.3332L7.84784 13.866C7.59033 13.8939 7.32508 13.8424 7.095 13.7125L2.73768 11.244C2.37955 11.0412 2.16074 10.6784 2.16074 10.2864V5.47004C2.16074 5.07302 2.38518 4.706 2.75105 4.50534L7.11822 2.10323C7.29693 2.0054 7.49534 1.95399 7.69446 1.94971H7.69516L11.7021 4.41466C12.0447 4.62602 12.2544 5.00376 12.2544 5.41078Z" fill="white"/>
</mask>
<g mask="url(#mask0_2203_463)">
<mask id="mask1_2203_463" style="mask-type:luminance" maskUnits="userSpaceOnUse" x="-3" y="-4" width="21" height="24">
<path d="M5.98445 -3.91716L-2.32742 14.2522L9.23402 19.6998L17.5459 1.53049L5.98445 -3.91716Z" fill="white"/>
</mask>
<g mask="url(#mask1_2203_463)">
<mask id="mask2_2203_463" style="mask-type:luminance" maskUnits="userSpaceOnUse" x="-3" y="-4" width="21" height="24">
<path d="M5.98445 -3.91716L-2.32742 14.2522L9.23402 19.6998L17.5459 1.53049L5.98445 -3.91716Z" fill="white"/>
</mask>
<g mask="url(#mask2_2203_463)">
<rect x="-2.35071" y="-3.93481" width="19.9256" height="23.6498" fill="url(#paint0_linear_2203_463)"/>
</g>
</g>
</g>
<path d="M4.24399 8.1584C4.24399 7.85707 4.82726 7.65356 4.91451 7.38222C5.00457 7.10087 4.65348 6.58818 4.82163 6.35396C4.9912 6.11761 5.58081 6.29827 5.8144 6.12618C6.04517 5.95552 6.05643 5.33 6.33365 5.23859C6.60101 5.15005 6.9718 5.64704 7.26871 5.64704C7.56563 5.64704 7.93572 5.15005 8.20378 5.23859C8.481 5.33 8.49225 5.95623 8.72303 6.12618C8.95592 6.29827 9.54553 6.11689 9.71579 6.35396C9.88395 6.58818 9.53286 7.10087 9.62292 7.38222C9.71017 7.65356 10.2934 7.85778 10.2934 8.1584C10.2934 8.45974 9.71017 8.66325 9.62292 8.93459C9.53286 9.21593 9.88395 9.72863 9.71579 9.96284C9.54623 10.1992 8.95662 10.0185 8.72303 10.1906C8.49225 10.3613 8.481 10.9868 8.20378 11.0782C7.93642 11.1668 7.56563 10.6698 7.26871 10.6698C6.9718 10.6698 6.60171 11.1668 6.33365 11.0782C6.05643 10.9868 6.04517 10.3606 5.8144 10.1906C5.58151 10.0185 4.9919 10.1999 4.82163 9.96284C4.65348 9.72863 5.00457 9.21593 4.91451 8.93459C4.82726 8.66325 4.24399 8.45974 4.24399 8.1584Z" fill="black"/>
<path d="M4.72528 8.15861C4.72528 7.90511 5.21568 7.73445 5.28886 7.50595C5.36484 7.26888 5.06934 6.8383 5.21076 6.64122C5.35359 6.44199 5.84891 6.5948 6.04521 6.44985C6.2394 6.30632 6.24855 5.78006 6.48214 5.70294C6.70729 5.62868 7.01898 6.0464 7.26805 6.0464C7.51782 6.0464 7.82881 5.62868 8.05396 5.70294C8.28755 5.78006 8.2967 6.30632 8.49089 6.44985C8.68719 6.5948 9.18251 6.44199 9.32534 6.64122C9.46676 6.8383 9.17126 7.26888 9.24724 7.50595C9.32042 7.73445 9.81082 7.90583 9.81082 8.15861C9.81082 8.4121 9.32042 8.58276 9.24724 8.81126C9.17126 9.04833 9.46676 9.47891 9.32534 9.67599C9.18251 9.87522 8.68719 9.72241 8.49089 9.86736C8.2967 10.0109 8.28755 10.5372 8.05396 10.6143C7.82881 10.6885 7.51712 10.2708 7.26805 10.2708C7.01828 10.2708 6.70729 10.6885 6.48214 10.6143C6.24855 10.5372 6.2394 10.0109 6.04521 9.86736C5.84891 9.72241 5.35359 9.87522 5.21076 9.67599C5.06934 9.47891 5.36484 9.04833 5.28886 8.81126C5.21568 8.58276 4.72528 8.41138 4.72528 8.15861Z" fill="white"/>
<path d="M6.06705 8.20651L7.02604 9.10909L8.71183 7.58813L8.33753 7.20825L7.11962 8.34861L6.46387 7.77808L6.06705 8.20651Z" fill="black"/>
<path d="M13.9296 5.05038V10.7686C13.9296 11.322 13.7305 11.8483 13.3822 12.2546C13.2429 12.4181 13.0797 12.5623 12.8954 12.6816L11.3221 13.6977V13.6984L10.2224 14.4089L8.25308 15.6814C7.52697 16.1505 6.59964 16.1548 5.86932 15.6914L4.17437 14.616L3.21257 14.0062L1.15035 12.698L1.1208 12.6794C0.467167 12.2653 0.070343 11.5384 0.070343 10.7565V5.05038C0.070343 4.23563 0.501643 3.483 1.1996 3.08027L5.89465 0.367542C6.57994 -0.0287639 7.42003 -0.0287639 8.10532 0.367542L12.8004 3.08027C13.4983 3.483 13.9296 4.23563 13.9296 5.05038ZM12.184 10.3537V5.41098C12.184 5.00396 11.9744 4.62622 11.6317 4.41486L7.62477 1.94991H7.62407L7.58607 1.92634C7.22513 1.70427 6.77343 1.70141 6.40967 1.91778L2.2191 4.41772C1.86872 4.62622 1.65342 5.00825 1.65342 5.42169V10.433C1.65342 10.8407 1.86309 11.2185 2.20644 11.4298L6.38786 13.9976C6.76217 14.2282 7.23358 14.2211 7.60226 13.9805L7.77745 13.8662L11.6577 11.3334C11.9856 11.1192 12.184 10.75 12.184 10.3537Z" fill="white"/>
<path d="M7.05347 16.1054C6.62851 16.1054 6.20424 15.9875 5.83204 15.7519L1.08353 12.74C0.404564 12.3101 0 11.5682 0 10.7563V5.05022C0 4.2112 0.446076 3.43287 1.16514 3.01799L5.86019 0.305263C6.56378 -0.101754 7.43763 -0.101754 8.14052 0.305263L12.8356 3.01799C13.5539 3.43287 14 4.2112 14 5.05022V10.7685C14 11.3318 13.7995 11.8767 13.4357 12.3015C13.2901 12.4722 13.1212 12.6207 12.9334 12.7421L11.3601 13.7582L11.2849 13.6376L12.8581 12.6214C13.034 12.5072 13.193 12.3687 13.3295 12.208C13.6714 11.8088 13.86 11.2983 13.86 10.7685V5.05022C13.86 4.26261 13.4406 3.53141 12.7666 3.14224L8.07086 0.42951C7.41019 0.0474851 6.58981 0.0474851 5.92984 0.42951L1.2348 3.14224C0.560057 3.53141 0.141422 4.26261 0.141422 5.05022V10.7563C0.141422 11.5189 0.522063 12.2151 1.15881 12.6186L1.18836 12.6372L5.90733 15.6305C6.61021 16.0768 7.51643 16.0725 8.2158 15.6205L11.2849 13.6376L11.3601 13.7582L8.29109 15.7412C7.91537 15.984 7.48407 16.1054 7.05347 16.1054Z" fill="black"/>
<path d="M6.98103 14.236C6.76221 14.236 6.5441 14.1767 6.35202 14.0589L2.17059 11.4912C1.80825 11.2684 1.5838 10.8628 1.5838 10.4329V5.4216C1.5838 4.9846 1.81387 4.57615 2.18396 4.35622L6.37453 1.85628C6.76151 1.62635 7.23995 1.62921 7.6234 1.86556L7.6614 1.88913L7.58822 2.01123L7.55023 1.98767C7.2111 1.77916 6.78824 1.7763 6.4463 1.97981L2.25573 4.47975C1.92786 4.67469 1.72452 5.03601 1.72452 5.42232V10.4336C1.72452 10.8135 1.92363 11.172 2.24377 11.369L6.42519 13.9368C6.77347 14.1518 7.22095 14.1453 7.565 13.9204L11.6205 11.2734C11.9301 11.0713 12.1144 10.7271 12.1144 10.3536V5.41089C12.1144 5.03172 11.916 4.67326 11.5959 4.47547L7.58893 2.01052L7.6621 1.88841L11.669 4.35336C12.0307 4.57615 12.2551 4.98174 12.2551 5.41089V10.3536C12.2551 10.7764 12.0462 11.1648 11.6965 11.3933L7.64099 14.0404C7.44117 14.1703 7.2111 14.236 6.98103 14.236Z" fill="black"/>
<path d="M7.6431 13.9447C7.41513 13.9447 7.18787 13.8861 6.99087 13.7747L2.63355 11.3062C2.25572 11.092 2.02072 10.7014 2.02072 10.2865V5.47016C2.02072 5.04886 2.26135 4.6547 2.64762 4.44262L7.01479 2.04051C7.20054 1.93911 7.41021 1.8827 7.6234 1.87842L7.62551 2.02123H7.6248C7.43624 2.02552 7.24768 2.0755 7.08163 2.16619L2.71446 4.5683C2.37322 4.75538 2.16074 5.10099 2.16074 5.47016V10.2865C2.16074 10.65 2.36829 10.9927 2.7018 11.182L7.05912 13.6505C7.2716 13.7704 7.52489 13.8219 7.77045 13.7954L7.78522 13.9375C7.73738 13.9425 7.69024 13.9447 7.6431 13.9447Z" fill="black"/>
<path d="M6.98587 19.5999L4.10397 17.5998V14.6158H4.24469V17.5242L6.99009 19.43L10.152 17.4692V14.4087H10.2927V17.5491L6.98587 19.5999Z" fill="black"/>
<path d="M3.21195 16.9945C3.19647 16.9945 3.18099 16.9895 3.16833 16.9795L1.10611 15.3336C1.08923 15.3201 1.07938 15.2994 1.07938 15.2772V12.6987H1.22009V15.2422L3.14159 16.776V14.0076H3.28231V16.9231C3.28231 16.9503 3.26683 16.9753 3.24291 16.9874C3.23306 16.9924 3.22251 16.9945 3.21195 16.9945Z" fill="black"/>
<path d="M11.3925 14.1659H11.2518V13.6982L11.3925 13.6975V14.1659Z" fill="black"/>
<path d="M11.3222 16.9944C11.3116 16.9944 11.3011 16.9922 11.2912 16.9872C11.2673 16.9751 11.2518 16.9501 11.2518 16.923V14.166H11.3925V16.7759L13.3133 15.2421V12.2551H13.454V15.277C13.454 15.2992 13.4442 15.3199 13.4273 15.3335L11.3658 16.9794C11.3531 16.9894 11.3376 16.9944 11.3222 16.9944Z" fill="black"/>
<path d="M1.18942 12.9799L1.11237 13.0994L3.1748 14.4691L3.25186 14.3496L1.18942 12.9799Z" fill="black"/>
<path d="M13.3443 12.6395L11.283 14.1074L11.3638 14.2243L13.4251 12.7564L13.3443 12.6395Z" fill="black"/>
<path d="M7.0246 16.4767C6.47862 16.4767 5.93334 16.3132 5.45912 15.9861L4.12863 15.0685L4.21377 14.9543L4.21658 14.9564L5.53862 15.8676C6.42655 16.4803 7.57973 16.4895 8.47751 15.8904L10.1837 14.7529L10.2674 14.8672L10.2611 14.8722L8.55491 16.0097C8.08843 16.321 7.55651 16.4767 7.0246 16.4767Z" fill="black"/>
<path d="M6.1712 2.05612C7.57627 2.03541 7.59316 2.01827 7.61356 0.592285C7.63396 2.01827 7.65085 2.03541 9.05592 2.05612C7.65085 2.07682 7.63396 2.09396 7.61356 3.51995C7.59316 2.09396 7.57627 2.07682 6.1712 2.05612Z" fill="white"/>
<path d="M11.3073 10.6963C12.1643 10.6834 12.1742 10.6734 12.1868 9.80371C12.1995 10.6734 12.2093 10.6834 13.0663 10.6963C12.2093 10.7091 12.1995 10.7191 12.1868 11.5889C12.1742 10.7191 12.1643 10.7091 11.3073 10.6963Z" fill="black"/>
<path d="M0.261047 15.2664C1.11802 15.2535 1.12787 15.2435 1.14053 14.3738C1.1532 15.2435 1.16305 15.2535 2.02002 15.2664C1.16305 15.2792 1.1532 15.2892 1.14053 16.1589C1.12787 15.2892 1.11802 15.2792 0.261047 15.2664Z" fill="black"/>
<path d="M3.91971 9.98242C4.77668 9.96957 4.78653 9.95957 4.79919 9.08984C4.81186 9.95957 4.82171 9.96957 5.67868 9.98242C4.82171 9.99528 4.81186 10.0053 4.79919 10.875C4.78653 10.0053 4.77668 9.99528 3.91971 9.98242Z" fill="white"/>
<defs>
<linearGradient id="paint0_linear_2203_463" x1="-2.35071" y1="7.89009" x2="17.5749" y2="7.8901" gradientUnits="userSpaceOnUse">
<stop stop-color="#483BEB"/>
<stop offset="0.479167" stop-color="#7847E1"/>
<stop offset="0.963542" stop-color="#DD568D"/>
</linearGradient>
</defs>
</svg>
