<svg width="24" height="15" viewBox="0 0 24 15" fill="none" xmlns="http://www.w3.org/2000/svg">
<path d="M19.6059 3.87163C19.6059 1.73352 17.027 0 13.8469 0C10.8154 0 8.33314 1.57221 8.10684 3.57459C8.09505 3.6719 8.09033 3.77176 8.09033 3.86906V6.8496C8.09033 8.9877 10.6693 10.7212 13.8493 10.7212C17.0293 10.7212 19.6083 8.9877 19.6083 6.8496V3.87163H19.6059ZM18.5098 6.8496C18.5098 8.11454 16.5979 9.52799 13.8493 9.52799C11.1006 9.52799 9.18884 8.11454 9.18884 6.8496V6.14288C9.23363 6.17872 9.27843 6.22225 9.32557 6.26066C10.384 7.16455 12.0177 7.74069 13.8517 7.74069C15.6857 7.74069 17.3193 7.16199 18.3777 6.26066C18.4225 6.22993 18.4673 6.18641 18.5145 6.14288V6.8496H18.5098ZM18.373 4.46056C18.2363 4.78063 17.9935 5.08791 17.654 5.36445C16.8384 6.04557 15.4924 6.55001 13.8469 6.55001C12.2015 6.55001 10.8555 6.04557 10.0399 5.36445C9.7004 5.08791 9.45758 4.78063 9.32085 4.46056C9.23127 4.26339 9.18414 4.06623 9.18414 3.87163C9.18414 2.60669 11.0959 1.19323 13.8446 1.19323C16.5932 1.19323 18.505 2.60669 18.505 3.87163C18.5097 4.06879 18.4626 4.26339 18.373 4.46056Z" fill="white"/>
<path d="M12.4774 7.13379H11.3812V10.2731H12.4774V7.13379Z" fill="white"/>
<path d="M16.3175 7.05957H15.2213V10.1989H16.3175V7.05957Z" fill="white"/>
<path d="M20.7044 4.66284V5.90473C22.0623 6.41429 22.8991 7.31819 22.8991 8.15294C22.8991 8.35011 22.8543 8.54727 22.7624 8.74188C22.6257 9.06195 22.3829 9.36922 22.0434 9.64577C21.2278 10.3269 19.8817 10.8313 18.2363 10.8313C17.7507 10.8313 17.291 10.7878 16.862 10.7033V11.9145C17.3028 11.9887 17.7625 12.0246 18.2363 12.0246C20.068 12.0246 21.704 11.4459 22.7624 10.5445C22.8072 10.5087 22.852 10.4703 22.8991 10.4267V11.1335C22.8991 12.3984 20.9873 13.8119 18.2387 13.8119C17.7531 13.8119 17.2934 13.7683 16.8643 13.6838C16.4683 13.6173 16.1006 13.5123 15.7682 13.3766C14.83 13.0258 14.144 12.4855 13.8116 11.9145H12.6023C13.1398 13.6787 15.4594 15 18.241 15C21.4187 15 24 13.2741 24 11.136V8.1555C23.9953 6.61145 22.6493 5.27739 20.7044 4.66284Z" fill="white"/>
<path d="M16.862 11.9146H15.7659V14.5571H16.862V11.9146Z" fill="white"/>
<path d="M20.7044 11.3408H19.6083V14.4801H20.7044V11.3408Z" fill="white"/>
<path d="M11.5227 11.894H2.68738V13.0028H11.5227V11.894Z" fill="white"/>
<path d="M7.84762 9.45361H1.44275V10.5624H7.84762V9.45361Z" fill="white"/>
<path d="M6.83391 7.01343H0V8.12216H6.83391V7.01343Z" fill="white"/>
</svg>
