<svg width="24" height="24" viewBox="0 0 24 24" fill="none" xmlns="http://www.w3.org/2000/svg">
<path d="M10.924 16.3667H10.3976V9.08936L9.56165 9.84521L8.34485 10.9458L8.01184 10.644L10.924 8.01123V16.3667Z" fill="#A7B1BC" stroke="#A7B1BC"/>
<path d="M13.5999 7.63574V14.9141L14.4358 14.1572L15.6506 13.0566L15.9827 13.3574L13.0735 15.9902V7.63574H13.5999Z" fill="#A7B1BC" stroke="#A7B1BC"/>
<path d="M20 3.38136V20.6212H18.4765V3.38136H5.52354V20.6212H18.4765V22H4V3.38136C4 3.01545 4.16042 2.66448 4.44606 2.4055C4.7317 2.14652 5.11921 2.00068 5.52354 2H18.4765C18.8808 2.00068 19.2683 2.14652 19.5539 2.4055C19.8396 2.66448 20 3.01545 20 3.38136Z" fill="#A7B1BC"/>
</svg>
