<svg width="12" height="12" viewBox="0 0 12 12" fill="none" xmlns="http://www.w3.org/2000/svg">
<g clip-path="url(#clip0_2203_459)">
<path d="M6.15003 6.11C6.41682 5.87907 6.63081 5.59344 6.77747 5.27251C6.92413 4.95158 7.00003 4.60285 7.00003 4.25C7.00003 3.58696 6.73664 2.95107 6.2678 2.48223C5.79896 2.01339 5.16307 1.75 4.50003 1.75C3.83699 1.75 3.2011 2.01339 2.73226 2.48223C2.26342 2.95107 2.00003 3.58696 2.00003 4.25C2.00003 4.60285 2.07593 4.95158 2.22259 5.27251C2.36926 5.59344 2.58324 5.87907 2.85003 6.11C2.1501 6.42694 1.55626 6.93876 1.13952 7.58427C0.722778 8.22978 0.500766 8.98166 0.500031 9.75C0.500031 9.88261 0.552709 10.0098 0.646477 10.1036C0.740245 10.1973 0.867422 10.25 1.00003 10.25C1.13264 10.25 1.25982 10.1973 1.35358 10.1036C1.44735 10.0098 1.50003 9.88261 1.50003 9.75C1.50003 8.95435 1.8161 8.19129 2.37871 7.62868C2.94132 7.06607 3.70438 6.75 4.50003 6.75C5.29568 6.75 6.05874 7.06607 6.62135 7.62868C7.18396 8.19129 7.50003 8.95435 7.50003 9.75C7.50003 9.88261 7.55271 10.0098 7.64648 10.1036C7.74025 10.1973 7.86742 10.25 8.00003 10.25C8.13264 10.25 8.25982 10.1973 8.35358 10.1036C8.44735 10.0098 8.50003 9.88261 8.50003 9.75C8.49929 8.98166 8.27728 8.22978 7.86054 7.58427C7.4438 6.93876 6.84996 6.42694 6.15003 6.11ZM4.50003 5.75C4.20336 5.75 3.91335 5.66203 3.66668 5.4972C3.42 5.33238 3.22774 5.09811 3.11421 4.82403C3.00068 4.54994 2.97097 4.24834 3.02885 3.95736C3.08673 3.66639 3.22959 3.39912 3.43937 3.18934C3.64915 2.97956 3.91642 2.8367 4.2074 2.77882C4.49837 2.72094 4.79997 2.75065 5.07406 2.86418C5.34815 2.97771 5.58241 3.16997 5.74723 3.41664C5.91206 3.66332 6.00003 3.95333 6.00003 4.25C6.00003 4.64782 5.842 5.02936 5.56069 5.31066C5.27939 5.59196 4.89786 5.75 4.50003 5.75ZM9.37003 5.91C9.69001 5.54966 9.89903 5.10453 9.97193 4.62817C10.0448 4.15181 9.97849 3.66454 9.78091 3.225C9.58333 2.78546 9.26293 2.4124 8.85827 2.15071C8.4536 1.88903 7.98193 1.74987 7.50003 1.75C7.36742 1.75 7.24025 1.80268 7.14648 1.89645C7.05271 1.99021 7.00003 2.11739 7.00003 2.25C7.00003 2.38261 7.05271 2.50979 7.14648 2.60355C7.24025 2.69732 7.36742 2.75 7.50003 2.75C7.89786 2.75 8.27939 2.90804 8.56069 3.18934C8.842 3.47064 9.00003 3.85218 9.00003 4.25C8.99932 4.51262 8.92968 4.77045 8.79806 4.99771C8.66644 5.22497 8.47747 5.41369 8.25003 5.545C8.1759 5.58776 8.11399 5.64883 8.07021 5.72237C8.02644 5.79591 8.00227 5.87945 8.00003 5.965C7.99794 6.04988 8.0175 6.1339 8.05686 6.20913C8.09623 6.28436 8.1541 6.34833 8.22503 6.395L8.42003 6.525L8.48503 6.56C9.08773 6.84586 9.59619 7.298 9.95052 7.86316C10.3049 8.42832 10.4903 9.08297 10.485 9.75C10.485 9.88261 10.5377 10.0098 10.6315 10.1036C10.7252 10.1973 10.8524 10.25 10.985 10.25C11.1176 10.25 11.2448 10.1973 11.3386 10.1036C11.4324 10.0098 11.485 9.88261 11.485 9.75C11.4891 8.98271 11.2969 8.22713 10.9268 7.55503C10.5566 6.88294 10.0207 6.31666 9.37003 5.91Z" fill="#85D1F0"/>
</g>
<defs>
<clipPath id="clip0_2203_459">
<rect width="12" height="12" fill="white"/>
</clipPath>
</defs>
</svg>
