<svg width="20" height="17" viewBox="0 0 20 17" fill="none" xmlns="http://www.w3.org/2000/svg">
<path d="M19.9977 1.43379H18.5979V10.5408C18.5979 10.5742 18.5746 10.5981 18.5419 10.5981H15.7401C15.7168 10.3066 15.6725 10.0198 15.6071 9.74262C16.5146 9.69961 17.2355 8.93492 17.2355 7.99578V7.72575C17.2355 6.76033 16.4726 5.97652 15.5278 5.97652H4.46983C3.52733 5.97652 2.76215 6.76033 2.76215 7.72575V7.99578C2.76215 8.93492 3.48301 9.69961 4.38818 9.74262C4.32519 10.0198 4.28088 10.3066 4.25755 10.5981H1.4534C1.42307 10.5981 1.39741 10.5742 1.39741 10.5408V1.43379H18.5979V0.0023847C18.5793 -4.95895e-06 18.5606 0 18.5419 0H0V10.5408C0 11.3652 0.650876 12.0319 1.4534 12.0319H4.30887C4.74512 14.8493 7.12936 17 9.99883 17C12.8706 17 15.2502 14.8493 15.6888 12.0319H18.5419C19.3468 12.0319 20 11.3652 20 10.5408V1.49114C20 1.47202 20 1.45291 19.9977 1.43379ZM4.96907 8.21324H4.46983C4.35085 8.21324 4.25522 8.11526 4.25522 7.99578V7.72575C4.25522 7.60627 4.35085 7.50829 4.46983 7.50829H5.42401C5.25604 7.73053 5.10438 7.96472 4.96907 8.21324ZM14.2657 12.0319C13.8435 14.0464 12.0914 15.5638 9.99883 15.5638C7.90622 15.5638 6.1542 14.0464 5.73427 12.0319C5.67128 11.7308 5.63628 11.4178 5.63628 11.0952C5.63628 10.9279 5.64561 10.7606 5.66427 10.5981C5.69694 10.3042 5.75526 10.0198 5.84158 9.74262C6.01655 9.17866 6.30117 8.66011 6.66744 8.21324C6.8844 7.95038 7.13169 7.7138 7.40231 7.50829H12.5954C12.866 7.7138 13.1133 7.95038 13.3302 8.21324C13.6988 8.66011 13.9834 9.17866 14.1561 9.74262C14.2424 10.0198 14.303 10.3042 14.3357 10.5981C14.3544 10.7606 14.3614 10.9279 14.3614 11.0952C14.3614 11.4178 14.3287 11.7308 14.2657 12.0319ZM15.0262 8.21324C14.8933 7.96472 14.7416 7.73053 14.5737 7.50829H15.5278C15.6468 7.50829 15.7424 7.60627 15.7424 7.72575V7.99578C15.7424 8.11526 15.6468 8.21324 15.5278 8.21324H15.0262Z" fill="white"/>
<path d="M10.4747 11.6496V9.04248H9.52521V11.6424L9.23827 11.3485C9.01431 11.5779 8.79035 11.8073 8.56873 12.0343L10.0058 13.5064C10.4817 13.0189 10.9576 12.5338 11.4335 12.0463C11.1979 11.8288 10.96 11.6137 10.7243 11.3963L10.4747 11.6496Z" fill="white"/>
</svg>
